<?xml version="1.0" encoding="utf-8"?>
<!-- Generator: Adobe Illustrator 23.0.1, SVG Export Plug-In . SVG Version: 6.00 Build 0)  -->
<svg version="1.1" id="Layer_1" xmlns="http://www.w3.org/2000/svg" xmlns:xlink="http://www.w3.org/1999/xlink" x="0px" y="0px"
	 viewBox="0 0 468.383 469.236" enable-background="new 0 0 468.383 469.236" xml:space="preserve">
<g>
	<g>
		<path fill="#FFFFFF" d="M233.542,320.249c-47.698,0-86.503-38.806-86.503-86.503c0-47.698,38.805-86.503,86.503-86.503
			s86.504,38.805,86.504,86.503C320.046,281.444,281.24,320.249,233.542,320.249z M233.542,148.242
			c-47.147,0-85.503,38.356-85.503,85.503s38.356,85.503,85.503,85.503c47.147,0,85.504-38.356,85.504-85.503
			S280.689,148.242,233.542,148.242z"/>
	</g>
	<path fill="#FFFFFF" d="M228.522,336.96c-26.022-1.246-50.327-12.146-68.711-30.884c-19.09-19.456-29.604-45.144-29.604-72.331
		c0-27.187,10.514-52.874,29.604-72.331c18.385-18.737,42.689-29.638,68.711-30.883v34.723c-16.8,1.216-32.429,8.508-44.263,20.711
		c-12.504,12.893-19.39,29.862-19.39,47.78s6.886,34.887,19.39,47.781c11.834,12.203,27.462,19.494,44.263,20.711V336.96z"/>
</g>
</svg>
