<?xml version="1.0" encoding="utf-8"?>
<!-- Generator: Adobe Illustrator 23.0.1, SVG Export Plug-In . SVG Version: 6.00 Build 0)  -->
<svg version="1.1" id="Layer_1" xmlns="http://www.w3.org/2000/svg" xmlns:xlink="http://www.w3.org/1999/xlink" x="0px" y="0px"
	 viewBox="0 0 520.29 519.468" enable-background="new 0 0 520.29 519.468" xml:space="preserve">
<circle fill="none" cx="260.145" cy="259.926" r="230.232"/>
<path fill="#FFFFFF" d="M152.554,206.178c-0.049-0.516-0.128-0.924-0.238-1.226c-0.11-0.302-0.25-0.59-0.422-0.865
	c-0.172-0.274-0.398-0.474-0.68-0.598c-0.281-0.124-0.608-0.186-0.978-0.186c-0.371,0-0.694,0.062-0.969,0.186
	c-0.275,0.123-0.501,0.319-0.68,0.587c-0.179,0.268-0.323,0.556-0.432,0.865c-0.11,0.309-0.192,0.714-0.248,1.216
	c-0.054,0.502-0.089,0.976-0.103,1.422c-0.014,0.447-0.02,1.013-0.02,1.7v0.124c0,0.81,0.014,1.487,0.042,2.03
	c0.027,0.543,0.088,1.102,0.185,1.68c0.096,0.577,0.231,1.034,0.402,1.37c0.172,0.337,0.409,0.615,0.712,0.835
	c0.301,0.22,0.672,0.329,1.113,0.329c0.535,0,0.971-0.147,1.308-0.443c0.336-0.295,0.583-0.759,0.741-1.391
	c0.158-0.632,0.261-1.267,0.309-1.906c0.049-0.639,0.072-1.474,0.072-2.504V209.3c0-0.701-0.007-1.267-0.02-1.7
	C152.632,207.167,152.602,206.693,152.554,206.178z"/>
<path fill="#FFFFFF" d="M130.37,189.98c-0.054-0.501-0.134-0.903-0.237-1.205c-0.103-0.302-0.243-0.59-0.422-0.865
	c-0.179-0.274-0.405-0.47-0.68-0.587c-0.275-0.117-0.598-0.175-0.969-0.175c-0.439,0-0.814,0.096-1.123,0.289
	c-0.309,0.192-0.549,0.44-0.721,0.741c-0.172,0.303-0.302,0.728-0.392,1.278c-0.089,0.55-0.147,1.079-0.175,1.587
	c-0.027,0.508-0.041,1.168-0.041,1.978v0.227c0,0.81,0.014,1.487,0.041,2.03c0.028,0.543,0.089,1.102,0.186,1.68
	c0.096,0.577,0.23,1.033,0.402,1.37c0.172,0.337,0.409,0.615,0.711,0.835s0.673,0.329,1.113,0.329c0.537,0,0.972-0.147,1.31-0.443
	c0.336-0.295,0.583-0.759,0.741-1.391c0.157-0.632,0.26-1.268,0.309-1.906c0.048-0.639,0.072-1.474,0.072-2.504v-0.186
	c0-0.687-0.008-1.247-0.02-1.68C130.459,190.949,130.425,190.482,130.37,189.98z"/>
<path fill="#FFFFFF" d="M106.487,188.446c-0.508,0-0.942,0.131-1.298,0.392c-0.358,0.261-0.628,0.57-0.814,0.927
	c-0.186,0.358-0.329,0.807-0.432,1.35s-0.165,0.999-0.186,1.37c-0.02,0.371-0.032,0.804-0.032,1.298v15.27
	c0,0.426,0.018,0.842,0.052,1.247s0.106,0.865,0.216,1.38c0.11,0.516,0.261,0.962,0.454,1.34c0.191,0.378,0.463,0.697,0.814,0.958
	c0.35,0.261,0.758,0.392,1.226,0.392c0.577,0,1.064-0.182,1.464-0.546c0.397-0.364,0.686-0.848,0.865-1.453
	c0.179-0.604,0.299-1.168,0.361-1.69c0.061-0.522,0.093-1.064,0.093-1.628v-15.27C109.27,190.225,108.341,188.446,106.487,188.446z"
	/>
<path fill="#FFFFFF" d="M287.681,31.337c-67.724-8.112-138.362,13.818-190.334,65.79C8.172,186.301,7.458,330.417,95.169,420.492
	l104.217-104.217c-30.211-32.467-29.529-83.276,2.085-114.89c18.231-18.231,42.847-26.154,66.649-23.822L287.681,31.337z
	 M94.185,210.928h-3.463v9.005h-7.11v-9.005H73.227v-5.811l9.067-22.296h8.428v22.338h3.463V210.928z M116.461,209.053
	c0,1.58-0.206,3.06-0.618,4.441c-0.412,1.38-1.02,2.607-1.823,3.678c-0.804,1.071-1.852,1.92-3.142,2.545
	c-1.292,0.625-2.755,0.937-4.39,0.937c-1.663,0-3.142-0.309-4.44-0.927c-1.298-0.618-2.346-1.463-3.143-2.535
	c-0.797-1.071-1.398-2.298-1.803-3.678c-0.405-1.381-0.608-2.868-0.608-4.461v-15.27c0-1.649,0.196-3.163,0.587-4.544
	c0.392-1.381,0.979-2.607,1.762-3.679c0.783-1.071,1.823-1.91,3.122-2.514c1.298-0.604,2.806-0.907,4.523-0.907
	c1.704,0,3.204,0.302,4.503,0.907c1.298,0.604,2.339,1.446,3.122,2.524c0.783,1.079,1.371,2.305,1.762,3.679
	c0.392,1.374,0.586,2.885,0.586,4.533V209.053z M120.128,193.247v-0.124c0-1.621,0.138-3.04,0.412-4.255
	c0.275-1.216,0.714-2.287,1.32-3.215c0.604-0.927,1.425-1.628,2.462-2.102c1.037-0.474,2.284-0.711,3.74-0.711
	c1.443,0,2.683,0.237,3.721,0.711c1.037,0.474,1.861,1.172,2.472,2.092c0.611,0.92,1.058,1.989,1.34,3.204
	c0.281,1.216,0.429,2.627,0.443,4.234v0.165c0,7.02-2.658,10.53-7.975,10.53C122.773,203.777,120.128,200.267,120.128,193.247z
	 M131.256,219.933l11.891-37.814h3.709l-11.911,37.814H131.256z M158.21,209.403c0,7.02-2.658,10.53-7.974,10.53
	c-5.289,0-7.934-3.51-7.934-10.53v-0.186c0.012-1.607,0.157-3.015,0.432-4.224c0.274-1.209,0.714-2.273,1.319-3.194
	c0.604-0.92,1.422-1.617,2.452-2.092c1.031-0.474,2.274-0.711,3.731-0.711c1.442,0,2.682,0.237,3.719,0.711
	c1.037,0.474,1.861,1.168,2.472,2.082c0.611,0.914,1.058,1.978,1.34,3.194c0.281,1.216,0.429,2.627,0.443,4.234V209.403z"/>
<polygon fill="#FFFFFF" points="83.613,205.158 83.613,194.03 79.574,205.158 "/>
<circle fill="none" cx="260.145" cy="259.926" r="230.232"/>
</svg>
