<?xml version="1.0" encoding="utf-8"?>
<!-- Generator: Adobe Illustrator 23.0.1, SVG Export Plug-In . SVG Version: 6.00 Build 0)  -->
<svg version="1.1" id="Layer_1" xmlns="http://www.w3.org/2000/svg" xmlns:xlink="http://www.w3.org/1999/xlink" x="0px" y="0px"
	 viewBox="0 0 468.383 469.236" enable-background="new 0 0 468.383 469.236" xml:space="preserve">
<g>
	<g>
		<path fill="#FFFFFF" d="M233.542,383.176c-82.396,0-149.43-67.034-149.43-149.43s67.034-149.43,149.43-149.43
			c82.396,0,149.43,67.034,149.43,149.43S315.937,383.176,233.542,383.176z M233.542,85.316c-81.844,0-148.43,66.585-148.43,148.43
			s66.585,148.43,148.43,148.43c81.845,0,148.43-66.586,148.43-148.43S315.386,85.316,233.542,85.316z"/>
	</g>
	<path fill="#FFFFFF" d="M365.09,237.387c0.034-1.224,0.052-2.442,0.052-3.641c0-72.564-59.035-131.599-131.6-131.599
		c-72.564,0-131.599,59.035-131.599,131.599c0,1.2,0.017,2.417,0.051,3.641H67.322c-0.027-1.227-0.042-2.444-0.042-3.641
		c0-91.676,74.584-166.261,166.261-166.261c91.676,0,166.26,74.584,166.26,166.261c0,1.201-0.014,2.419-0.041,3.641H365.09z"/>
</g>
</svg>
