<?xml version="1.0" encoding="utf-8"?>
<!-- Generator: Adobe Illustrator 23.0.1, SVG Export Plug-In . SVG Version: 6.00 Build 0)  -->
<svg version="1.1" id="Layer_1" xmlns="http://www.w3.org/2000/svg" xmlns:xlink="http://www.w3.org/1999/xlink" x="0px" y="0px"
	 viewBox="0 0 520.29 519.468" enable-background="new 0 0 520.29 519.468" xml:space="preserve">
<polygon fill="#FFFFFF" points="41.236,390.692 123.855,324.166 125.305,323.039 127.186,324.22 155.119,339.877 185.916,292.661 
	187.66,290.015 190.458,291.373 236.02,311.316 253.362,270.055 254.406,267.204 257.509,267.411 312.53,271.322 325.985,245.184 
	328.192,240.079 332.635,243.485 397.642,288.64 456.779,152.51 475.296,159.554 406.681,315.121 404.328,320.627 399.582,316.947 
	333.287,264.872 322.688,285.058 321.495,287.775 318.455,287.551 261.763,282.424 244.41,325.224 242.928,329.152 239.125,327.26 
	191.172,304.784 160.073,352.841 158.185,355.686 155.33,353.88 125.623,335.562 41.236,390.778 "/>
<polygon fill="#FFFFFF" points="480.402,170.112 445.013,155.923 480.917,126.176 "/>
</svg>
