<?xml version="1.0" encoding="utf-8"?>
<!-- Generator: Adobe Illustrator 23.0.1, SVG Export Plug-In . SVG Version: 6.00 Build 0)  -->
<svg version="1.1" id="Layer_1" xmlns="http://www.w3.org/2000/svg" xmlns:xlink="http://www.w3.org/1999/xlink" x="0px" y="0px"
	 viewBox="0 0 520.29 519.468" enable-background="new 0 0 520.29 519.468" xml:space="preserve">
<circle fill="none" cx="260.145" cy="259.926" r="230.232"/>
<circle fill="none" cx="260.145" cy="259.926" r="230.232"/>
<g>
	<path fill="#FFFFFF" d="M271.275,402.106c-0.047-0.432-0.115-0.779-0.204-1.04c-0.089-0.26-0.21-0.509-0.364-0.747
		c-0.154-0.237-0.35-0.406-0.587-0.507c-0.237-0.101-0.516-0.151-0.836-0.151c-0.379,0-0.702,0.083-0.969,0.249
		s-0.474,0.379-0.622,0.64c-0.148,0.261-0.261,0.628-0.338,1.103s-0.127,0.931-0.151,1.369c-0.023,0.438-0.035,1.007-0.035,1.707
		v0.196c0,0.699,0.012,1.283,0.035,1.751c0.024,0.468,0.077,0.951,0.16,1.449c0.083,0.498,0.198,0.892,0.347,1.182
		s0.353,0.531,0.613,0.72s0.581,0.284,0.96,0.284c0.463,0,0.839-0.127,1.13-0.382c0.29-0.254,0.503-0.655,0.64-1.2
		c0.136-0.545,0.225-1.094,0.267-1.645c0.041-0.551,0.062-1.271,0.062-2.16v-0.16c0-0.593-0.007-1.076-0.018-1.449
		C271.352,402.942,271.322,402.539,271.275,402.106z"/>
	<path fill="#FFFFFF" d="M290.414,416.081c-0.042-0.445-0.11-0.797-0.205-1.058s-0.216-0.509-0.364-0.747
		c-0.148-0.237-0.344-0.409-0.587-0.516c-0.242-0.107-0.524-0.16-0.844-0.16c-0.32,0-0.599,0.053-0.836,0.16
		c-0.237,0.106-0.433,0.275-0.587,0.507c-0.154,0.231-0.278,0.48-0.373,0.747s-0.166,0.616-0.214,1.049
		c-0.047,0.433-0.077,0.842-0.089,1.227s-0.018,0.874-0.018,1.466v0.107c0,0.699,0.012,1.283,0.036,1.751
		c0.023,0.469,0.076,0.951,0.159,1.449c0.083,0.498,0.199,0.892,0.347,1.182c0.148,0.291,0.353,0.531,0.614,0.72
		c0.26,0.189,0.58,0.284,0.96,0.284c0.462,0,0.838-0.127,1.129-0.382c0.29-0.255,0.503-0.655,0.64-1.2
		c0.137-0.545,0.226-1.093,0.267-1.645c0.042-0.551,0.062-1.271,0.062-2.16v-0.089c0-0.604-0.006-1.093-0.018-1.467
		C290.482,416.934,290.455,416.525,290.414,416.081z"/>
	<path fill="#FFFFFF" d="M259.996,490.596c60.733,0,117.887-23.289,161.267-65.645L316.62,320.308
		c-31.813,29.855-81.425,29.849-113.231-0.017l-104.66,104.66C142.108,467.307,199.262,490.596,259.996,490.596z M240.072,421.797
		v6.151H223.04v-5.494l7.787-11.147c0.45-0.652,0.824-1.209,1.12-1.671c0.297-0.462,0.613-1.02,0.951-1.671s0.593-1.298,0.765-1.938
		s0.258-1.268,0.258-1.885c0-0.367-0.044-0.74-0.133-1.12s-0.223-0.747-0.4-1.103s-0.424-0.643-0.738-0.862
		c-0.313-0.219-0.673-0.329-1.075-0.329c-0.332,0-0.631,0.077-0.897,0.231c-0.267,0.154-0.483,0.364-0.649,0.631
		c-0.166,0.267-0.309,0.572-0.427,0.916s-0.201,0.708-0.249,1.093c-0.047,0.385-0.089,0.773-0.124,1.165
		c-0.036,0.391-0.051,0.762-0.045,1.111s0.009,0.673,0.009,0.969c0,0.202,0,0.344,0,0.427h-6.133v-2.009
		c0-1.173,0.095-2.249,0.284-3.227c0.189-0.978,0.498-1.888,0.925-2.729c0.426-0.842,0.966-1.553,1.617-2.134
		c0.652-0.581,1.458-1.034,2.418-1.36c0.96-0.326,2.051-0.489,3.271-0.489c2.702,0,4.794,0.791,6.276,2.373
		c1.481,1.583,2.222,3.731,2.222,6.445c0,1.411-0.222,2.807-0.666,4.187c-0.445,1.381-1.076,2.708-1.894,3.982
		c-0.818,1.274-1.606,2.397-2.365,3.369c-0.759,0.972-1.665,2.071-2.72,3.298c-1.056,1.227-1.825,2.166-2.312,2.818H240.072z
		 M259.451,419.512c-0.095,0.907-0.255,1.831-0.48,2.773c-0.225,0.942-0.548,1.778-0.969,2.507s-0.937,1.384-1.547,1.964
		c-0.61,0.581-1.372,1.029-2.284,1.342c-0.913,0.314-1.95,0.471-3.111,0.471c-1.315,0-2.472-0.189-3.467-0.569
		c-0.996-0.379-1.805-0.889-2.427-1.529s-1.126-1.431-1.512-2.374c-0.385-0.942-0.651-1.917-0.8-2.925
		c-0.148-1.007-0.222-2.133-0.222-3.378h6.151c-0.013,0.581-0.013,1.07,0,1.467c0.012,0.397,0.035,0.83,0.07,1.298
		c0.036,0.468,0.099,0.851,0.188,1.147s0.207,0.578,0.355,0.844c0.147,0.267,0.338,0.462,0.568,0.587
		c0.231,0.125,0.501,0.187,0.81,0.187c0.391,0,0.74-0.077,1.049-0.231c0.308-0.154,0.557-0.365,0.746-0.631s0.353-0.575,0.489-0.924
		c0.136-0.35,0.234-0.723,0.293-1.12c0.06-0.397,0.11-0.8,0.151-1.209c0.042-0.409,0.057-0.803,0.045-1.182s-0.012-0.735,0-1.067
		c0-0.225,0-0.385,0-0.48c0-0.355-0.007-0.667-0.018-0.934c-0.013-0.267-0.042-0.598-0.089-0.996
		c-0.048-0.397-0.125-0.741-0.231-1.031c-0.106-0.29-0.246-0.571-0.418-0.844c-0.172-0.272-0.397-0.483-0.676-0.631
		c-0.278-0.148-0.602-0.222-0.969-0.222c-0.581,0-1.094,0.252-1.538,0.756s-0.797,1.082-1.058,1.733h-5.245v-18.383h15.237v6.08
		h-9.477v5.778c1.138-0.699,2.175-1.049,3.111-1.049c1.138,0,2.148,0.184,3.031,0.551c0.883,0.368,1.594,0.854,2.134,1.458
		c0.539,0.604,0.983,1.339,1.333,2.205s0.59,1.751,0.72,2.658c0.131,0.907,0.196,1.894,0.196,2.96
		C259.594,417.625,259.546,418.605,259.451,419.512z M262.439,404.925v-0.107c0-1.398,0.119-2.623,0.355-3.671
		c0.237-1.049,0.616-1.973,1.139-2.773c0.521-0.8,1.229-1.404,2.124-1.813c0.895-0.409,1.971-0.613,3.227-0.613
		c1.245,0,2.314,0.205,3.21,0.613c0.895,0.409,1.605,1.011,2.133,1.805s0.913,1.716,1.156,2.765c0.242,1.049,0.37,2.267,0.382,3.653
		v0.143c0,6.057-2.293,9.085-6.881,9.085C264.721,414.01,262.439,410.981,262.439,404.925z M272.039,427.948l10.259-32.624h3.2
		l-10.276,32.624H272.039z M295.294,418.863c0,6.057-2.293,9.085-6.88,9.085c-4.563,0-6.845-3.028-6.845-9.085v-0.16
		c0.011-1.387,0.136-2.602,0.373-3.645c0.236-1.043,0.616-1.961,1.138-2.756c0.521-0.794,1.227-1.396,2.115-1.805
		c0.89-0.409,1.962-0.613,3.219-0.613c1.244,0,2.313,0.205,3.209,0.613c0.895,0.409,1.605,1.008,2.133,1.796
		c0.527,0.789,0.913,1.707,1.156,2.756c0.242,1.049,0.37,2.267,0.382,3.653V418.863z"/>
</g>
</svg>
