<?xml version="1.0" encoding="utf-8"?>
<!-- Generator: Adobe Illustrator 23.0.1, SVG Export Plug-In . SVG Version: 6.00 Build 0)  -->
<svg version="1.1" id="Layer_1" xmlns="http://www.w3.org/2000/svg" xmlns:xlink="http://www.w3.org/1999/xlink" x="0px" y="0px"
	 viewBox="0 0 520.29 519.468" enable-background="new 0 0 520.29 519.468" xml:space="preserve">
<circle fill="none" cx="260.145" cy="259.926" r="230.232"/>
<circle fill="none" cx="260.145" cy="259.926" r="230.232"/>
<g>
	<g>
		<path fill="#FFFFFF" d="M431.206,231.155c-0.042-0.445-0.11-0.798-0.205-1.059s-0.216-0.509-0.364-0.746s-0.344-0.409-0.587-0.516
			c-0.242-0.107-0.524-0.16-0.844-0.16c-0.32,0-0.599,0.053-0.836,0.16c-0.237,0.106-0.433,0.275-0.587,0.507
			c-0.154,0.23-0.278,0.479-0.373,0.746s-0.166,0.616-0.214,1.049c-0.047,0.434-0.077,0.842-0.089,1.228
			c-0.012,0.385-0.018,0.874-0.018,1.466v0.107c0,0.699,0.012,1.283,0.036,1.751c0.023,0.469,0.076,0.951,0.159,1.449
			c0.083,0.497,0.199,0.892,0.347,1.182c0.148,0.291,0.353,0.531,0.614,0.721c0.26,0.189,0.58,0.284,0.96,0.284
			c0.462,0,0.838-0.127,1.129-0.382c0.29-0.255,0.503-0.655,0.64-1.2s0.226-1.094,0.267-1.645c0.042-0.552,0.062-1.271,0.062-2.16
			v-0.089c0-0.604-0.006-1.094-0.018-1.467C431.273,232.008,431.247,231.599,431.206,231.155z"/>
		<path fill="#FFFFFF" d="M412.066,217.181c-0.047-0.433-0.115-0.779-0.204-1.04s-0.21-0.51-0.364-0.747
			c-0.154-0.236-0.35-0.405-0.587-0.507c-0.237-0.101-0.516-0.15-0.836-0.15c-0.379,0-0.702,0.083-0.969,0.249
			s-0.474,0.379-0.622,0.64s-0.261,0.628-0.338,1.103c-0.077,0.474-0.127,0.931-0.151,1.369c-0.023,0.438-0.035,1.007-0.035,1.706
			v0.196c0,0.699,0.012,1.282,0.035,1.751c0.024,0.468,0.077,0.951,0.16,1.449c0.083,0.497,0.198,0.892,0.347,1.182
			c0.148,0.291,0.353,0.531,0.613,0.721s0.581,0.284,0.96,0.284c0.463,0,0.839-0.127,1.13-0.383c0.29-0.254,0.503-0.654,0.64-1.199
			c0.136-0.546,0.225-1.094,0.267-1.645c0.041-0.552,0.062-1.271,0.062-2.16v-0.16c0-0.593-0.007-1.076-0.018-1.449
			C412.143,218.016,412.114,217.613,412.066,217.181z"/>
		<path fill="#FFFFFF" d="M276.023,178.694c15.584,3.056,30.459,10.617,42.532,22.69c31.118,31.118,32.271,80.836,3.489,113.352
			l104.4,104.4c86.387-90.16,85.226-233.282-3.5-322.008c-35.912-35.912-80.739-57.464-127.356-64.688L276.023,178.694z
			 M379.985,229.217c0.516,1.357,0.773,2.818,0.773,4.383c0,1.481-0.157,2.815-0.472,4c-0.314,1.186-0.8,2.24-1.458,3.165
			c-0.657,0.924-1.55,1.636-2.676,2.133c-1.126,0.498-2.459,0.747-4,0.747c-1.304,0-2.453-0.166-3.449-0.498
			c-0.995-0.331-1.811-0.782-2.444-1.351c-0.634-0.569-1.153-1.28-1.556-2.134c-0.403-0.854-0.688-1.754-0.854-2.702
			s-0.261-2.016-0.284-3.2v-1.085h6.187c0,0.071,0,0.189,0,0.355c0,0.38,0,0.676,0,0.889c0,0.214,0.015,0.528,0.045,0.942
			c0.029,0.415,0.071,0.75,0.124,1.005c0.054,0.255,0.14,0.549,0.258,0.88c0.118,0.332,0.261,0.59,0.427,0.773
			s0.383,0.344,0.649,0.48c0.267,0.136,0.565,0.204,0.897,0.204s0.628-0.06,0.889-0.178s0.475-0.258,0.641-0.418
			s0.308-0.391,0.427-0.693c0.118-0.302,0.204-0.56,0.258-0.773c0.053-0.213,0.095-0.513,0.124-0.897s0.045-0.664,0.045-0.836
			s0-0.441,0-0.809c0-1.481-0.365-2.628-1.094-3.44c-0.729-0.812-1.828-1.2-3.298-1.164v-6.223c0.723,0.023,1.333-0.009,1.831-0.099
			c0.498-0.089,0.951-0.254,1.36-0.497c0.408-0.243,0.711-0.607,0.906-1.094c0.196-0.485,0.294-1.096,0.294-1.831
			c0-0.474-0.03-0.892-0.089-1.254c-0.06-0.361-0.166-0.72-0.32-1.075s-0.397-0.631-0.729-0.827
			c-0.331-0.195-0.746-0.293-1.244-0.293c-0.332,0-0.631,0.068-0.897,0.204c-0.267,0.137-0.483,0.297-0.649,0.48
			s-0.309,0.438-0.427,0.765s-0.204,0.619-0.258,0.88c-0.053,0.261-0.095,0.596-0.124,1.005c-0.03,0.408-0.045,0.72-0.045,0.933
			c0,0.214,0,0.51,0,0.89c0,0.142,0,0.249,0,0.319h-6.204v-2.026c0-2.762,0.749-4.931,2.249-6.507
			c1.499-1.576,3.617-2.365,6.355-2.365c2.727,0,4.842,0.795,6.347,2.383c1.506,1.588,2.259,3.751,2.259,6.489
			c0,1.34-0.276,2.622-0.827,3.849c-0.551,1.228-1.354,2.173-2.409,2.836C378.648,226.766,379.469,227.86,379.985,229.217z
			 M400.244,234.586c-0.095,0.907-0.255,1.831-0.48,2.773c-0.225,0.942-0.548,1.778-0.969,2.507
			c-0.421,0.729-0.937,1.384-1.547,1.965s-1.372,1.028-2.284,1.342c-0.913,0.314-1.95,0.472-3.111,0.472
			c-1.315,0-2.472-0.189-3.467-0.569c-0.996-0.379-1.805-0.889-2.427-1.528c-0.622-0.641-1.126-1.432-1.512-2.374
			c-0.385-0.942-0.651-1.917-0.8-2.925c-0.148-1.007-0.222-2.133-0.222-3.378h6.151c-0.013,0.581-0.013,1.07,0,1.467
			c0.012,0.397,0.035,0.83,0.07,1.298c0.036,0.469,0.099,0.851,0.188,1.147c0.089,0.296,0.207,0.577,0.355,0.844
			c0.147,0.267,0.338,0.463,0.568,0.587c0.231,0.125,0.501,0.187,0.81,0.187c0.391,0,0.74-0.076,1.049-0.23
			c0.308-0.154,0.557-0.365,0.746-0.632s0.353-0.574,0.489-0.924c0.136-0.35,0.234-0.724,0.293-1.12
			c0.06-0.397,0.11-0.801,0.151-1.209c0.042-0.409,0.057-0.803,0.045-1.183c-0.012-0.379-0.012-0.734,0-1.066
			c0-0.226,0-0.386,0-0.48c0-0.355-0.007-0.667-0.018-0.934c-0.013-0.267-0.042-0.598-0.089-0.995
			c-0.048-0.397-0.125-0.741-0.231-1.031s-0.246-0.571-0.418-0.845c-0.172-0.272-0.397-0.482-0.676-0.631s-0.602-0.223-0.969-0.223
			c-0.581,0-1.094,0.252-1.538,0.756s-0.797,1.082-1.058,1.733H384.1v-18.383h15.237v6.08h-9.477v5.778
			c1.138-0.699,2.175-1.049,3.111-1.049c1.138,0,2.148,0.184,3.031,0.551s1.594,0.854,2.134,1.458
			c0.539,0.604,0.983,1.339,1.333,2.204s0.59,1.751,0.72,2.658c0.131,0.906,0.196,1.894,0.196,2.96
			C400.386,232.699,400.338,233.68,400.244,234.586z M403.23,219.999v-0.107c0-1.398,0.119-2.622,0.355-3.671
			c0.237-1.049,0.616-1.974,1.139-2.773c0.521-0.8,1.229-1.404,2.124-1.813s1.971-0.613,3.227-0.613c1.245,0,2.314,0.204,3.21,0.613
			c0.895,0.409,1.605,1.011,2.133,1.805s0.913,1.716,1.156,2.765c0.242,1.049,0.37,2.267,0.382,3.653v0.143
			c0,6.057-2.293,9.085-6.881,9.085C405.512,229.084,403.23,226.056,403.23,219.999z M412.831,243.022l10.259-32.624h3.2
			l-10.276,32.624H412.831z M436.085,233.937c0,6.057-2.293,9.085-6.88,9.085c-4.563,0-6.845-3.028-6.845-9.085v-0.16
			c0.011-1.387,0.136-2.602,0.373-3.645c0.236-1.043,0.616-1.962,1.138-2.756s1.227-1.396,2.115-1.805
			c0.89-0.409,1.962-0.613,3.219-0.613c1.244,0,2.313,0.204,3.209,0.613c0.895,0.409,1.605,1.008,2.133,1.796
			s0.913,1.706,1.156,2.756c0.242,1.049,0.37,2.267,0.382,3.653V233.937z"/>
	</g>
	<circle fill="none" cx="260.145" cy="259.926" r="230.232"/>
</g>
</svg>
