<?xml version="1.0" encoding="utf-8"?>
<!-- Generator: Adobe Illustrator 23.0.1, SVG Export Plug-In . SVG Version: 6.00 Build 0)  -->
<svg version="1.1" id="Layer_1" xmlns="http://www.w3.org/2000/svg" xmlns:xlink="http://www.w3.org/1999/xlink" x="0px" y="0px"
	 viewBox="0 0 468.383 469.236" enable-background="new 0 0 468.383 469.236" xml:space="preserve">
<g>
	<g>
		<path fill="#FFFFFF" d="M233.542,442.873c-115.313,0-209.127-93.814-209.127-209.127c0-115.313,93.814-209.127,209.127-209.127
			S442.67,118.432,442.67,233.746C442.67,349.059,348.855,442.873,233.542,442.873z M233.542,25.618
			c-114.762,0-208.127,93.366-208.127,208.127c0,114.762,93.366,208.127,208.127,208.127S441.67,348.508,441.67,233.746
			C441.67,118.984,348.303,25.618,233.542,25.618z"/>
	</g>
	<path fill="#FFFFFF" d="M239.861,424.933c49.195-1.604,95.276-21.854,130.023-57.208c35.438-36.056,54.955-83.638,54.955-133.979
		s-19.517-97.923-54.955-133.979c-34.747-35.354-80.828-55.604-130.023-57.207V7.881c57.96,1.583,112.355,24.986,153.456,66.089
		c42.679,42.677,66.183,99.42,66.183,159.776s-23.504,117.099-66.182,159.776c-41.103,41.104-95.497,64.506-153.457,66.089V424.933z
		"/>
</g>
</svg>
