<?xml version="1.0" encoding="utf-8"?>
<!-- Generator: Adobe Illustrator 23.0.3, SVG Export Plug-In . SVG Version: 6.00 Build 0)  -->
<svg version="1.1" id="Layer_1" xmlns="http://www.w3.org/2000/svg" xmlns:xlink="http://www.w3.org/1999/xlink" x="0px" y="0px"
	 viewBox="0 0 99.8 99.8" style="enable-background:new 0 0 99.8 99.8;" xml:space="preserve">
<style type="text/css">
	.st0{fill:#1B83FF;}
	.st1{fill:#FFFFFF;}
</style>
<g id="XMLID_7_">
	<path class="st0" d="M95.2,75.2H4.6V28.3c0-4.8,3.9-8.7,8.7-8.7l73.4,0c4.7,0.1,8.5,4,8.5,8.7V75.2z M6.7,73.1h86.5V28.3
		c0-3.7-3-6.6-6.7-6.6H13.3c-3.7,0-6.7,3-6.7,6.6V73.1z"/>
</g>
<g id="XMLID_6_">
	<path class="st0" d="M93.2,86.5H6.7c-3.4,0-6.2-2.6-6.2-5.7v-7.7h39.1v3c0,1.7,1.4,3.2,3.2,3.2h14.1c1.8,0,3.4-1.4,3.4-3.2v-3h39.1
		v7.7C99.3,84,96.6,86.5,93.2,86.5z M2.5,75.2v5.6c0,2,1.8,3.6,4.1,3.6h86.5c2.3,0,4.1-1.6,4.1-3.6v-5.6h-35v1
		c0,2.9-2.4,5.2-5.4,5.2H42.8c-2.9,0-5.2-2.3-5.2-5.2v-1H2.5z"/>
</g>
<g id="XMLID_5_">
	<path class="st0" d="M89,75.2H10.8V25.8H89V75.2z M12.8,73.1H87V27.8H12.8V73.1z"/>
</g>
<g>
	
		<rect x="59.4" y="8.5" transform="matrix(0.6811 0.7322 -0.7322 0.6811 49.5006 -37.9383)" class="st1" width="17.9" height="58.6"/>
</g>
<g>
	<g id="XMLID_13_">
		
			<rect x="87.7" y="16.3" transform="matrix(0.7322 -0.6811 0.6811 0.7322 10.5665 65.6159)" class="st0" width="2.1" height="6.2"/>
	</g>
	<g id="XMLID_8_">
		<g id="XMLID_12_">
			<path class="st0" d="M39.4,64.6l8.7-15.5l0.1-0.1l42-39.1c1.6-1.5,4.2-1.4,5.7,0.2l1.9,2c0.7,0.8,1.1,1.8,1.1,2.9
				c0,1.1-0.5,2.1-1.3,2.8L55.5,57.1L39.4,64.6z M49.7,50.4L44.3,60l10-4.7l41.9-39c0.8-0.7,0.8-2,0.1-2.8l-1.9-2
				c-0.7-0.8-2-0.8-2.8-0.1L49.7,50.4z"/>
		</g>
		<g id="XMLID_11_">
			
				<rect x="53.2" y="46.1" transform="matrix(0.7323 -0.681 0.681 0.7323 -19.3063 50.2178)" class="st0" width="2.1" height="7.1"/>
		</g>
		<g id="XMLID_10_">
			
				<rect x="52.1" y="35.8" transform="matrix(0.7325 -0.6808 0.6808 0.7325 -6.4864 57.0586)" class="st0" width="34.4" height="2.1"/>
		</g>
		<g id="XMLID_9_">
			<rect x="82.6" y="19" transform="matrix(0.7322 -0.6811 0.6811 0.7322 6.7655 63.0742)" class="st0" width="2.1" height="7.9"/>
		</g>
	</g>
</g>
</svg>
