<?xml version="1.0" encoding="utf-8"?>
<!-- Generator: Adobe Illustrator 23.0.3, SVG Export Plug-In . SVG Version: 6.00 Build 0)  -->
<svg version="1.1" id="Layer_1" xmlns="http://www.w3.org/2000/svg" xmlns:xlink="http://www.w3.org/1999/xlink" x="0px" y="0px"
	 viewBox="0 0 99.8 99.8" style="enable-background:new 0 0 99.8 99.8;" xml:space="preserve">
<style type="text/css">
	.st0{fill:#1B83FF;}
</style>
<path class="st0" d="M24.1,79.2l-0.2,0.2c-0.4,0.4-1,0.4-1.3,0l-1.8-1.8c-0.4-0.4-0.4-1,0-1.3l0.2-0.2c0.4-0.4,1-0.4,1.3,0l1.8,1.8
	C24.5,78.2,24.5,78.8,24.1,79.2z"/>
<path class="st0" d="M27,76.3l-0.2,0.2c-0.4,0.4-1,0.4-1.3,0l-1.8-1.8c-0.4-0.4-0.4-1,0-1.3l0.2-0.2c0.4-0.4,1-0.4,1.3,0L27,75
	C27.4,75.3,27.4,75.9,27,76.3z"/>
<path class="st0" d="M29.9,73.4l-0.2,0.2c-0.4,0.4-1,0.4-1.3,0l-1.8-1.8c-0.4-0.4-0.4-1,0-1.3l0.2-0.2c0.4-0.4,1-0.4,1.3,0l1.8,1.8
	C30.3,72.5,30.3,73.1,29.9,73.4z"/>
<path class="st0" d="M32.8,70.5l-0.3,0.3c-0.4,0.4-1,0.4-1.3,0L29.4,69c-0.4-0.4-0.4-1,0-1.3l0.2-0.2c0.4-0.4,1-0.4,1.3,0l1.8,1.8
	C33.1,69.6,33.1,70.2,32.8,70.5z"/>
<path class="st0" d="M35.6,67.7l-0.2,0.2c-0.4,0.4-1,0.4-1.3,0l-1.8-1.8c-0.4-0.4-0.4-1,0-1.3l0.2-0.3c0.4-0.4,1-0.4,1.3,0l1.8,1.8
	C36,66.7,36,67.3,35.6,67.7z"/>
<g>
	<path class="st0" d="M39.3,99.2v-6.4h-2.2c-7.6,0-13.8-6.2-13.8-13.8v-1h2v1c0,6.5,5.3,11.8,11.8,11.8h15l1.6-17.3l4.7-1.6v-5.6
		l-0.2-0.2c-0.5-0.5-0.9-1-1.1-1.7L57,64.1H45.1c-3.5,0-6.5-2.5-7.2-5.9l-0.1-0.5H3.1v5.4c0,9.3,4.6,17.9,12.3,23l0.4,0.3v12.7h-2
		V87.5l-0.3-0.2C5.7,81.8,1.1,72.7,1.1,63.1v-6.4c0-16.4,13.3-29.7,29.7-29.7c9.6,0,18.6,4.7,24.2,12.5l0.2,0.3h2.4l-0.7-1
		c-3-4-4.7-9-4.7-14c0-1.6,0.2-3.3,0.6-5l0.1-0.3l-6.4-6.4h-8.2L38,13.6c-0.7,5.2-5.2,9.1-10.4,9.1c-5.8,0-10.6-4.7-10.6-10.6
		c0-5.8,4.7-10.6,10.6-10.6c5.2,0,9.7,3.9,10.4,9.1l0.1,0.5h9l6.2,6.2l0.3-0.9C57.1,7.5,65.9,1.5,75.4,1.5
		c12.9,0,23.3,10.5,23.3,23.3S88.3,48.2,75.4,48.2c-2.1,0-4.2-0.3-6.2-0.9l-0.8-0.2v16c0,2.3-1.9,4.2-4.2,4.2h-3.8v6.1L55.6,75
		L54,92.8H41.3v6.4H39.3z M61.1,38.6c-1.2,0-2.2,1-2.2,2.2v22.3c0,1.2,1,2.2,2.2,2.2h3.2c1.2,0,2.2-1,2.2-2.2V40.8
		c0-1.2-1-2.2-2.2-2.2H61.1z M40.1,58.5c0.8,2.1,2.8,3.6,5.1,3.6h11.8V41.8H45.1c-2.3,0-4.3,1.4-5.1,3.6l-0.3,0.8h2.2
		c2.3,0,4.2,1.9,4.2,4.2v3.2c0,2.3-1.9,4.2-4.2,4.2h-2.2L40.1,58.5z M4.3,48.6c-0.6,2-1,4.2-1.1,6.5l0,0.6h38.8c1.2,0,2.2-1,2.2-2.2
		v-3.2c0-1.2-1-2.2-2.2-2.2H4.4L4.3,48.6z M64.3,36.6c2.3,0,4.2,1.9,4.2,4.2V45l0.4,0.1c2.2,0.7,4.4,1.1,6.6,1.1
		c4,0,7.9-1.1,11.3-3.3l1.8-1.1H77c-2.3,0-4.2-1.9-4.2-4.2c0-2.3,1.9-4.2,4.2-4.2h8c1.2,0,2.2-1,2.2-2.2S86.2,29,85,29h-1.6
		c-2.3,0-4.2-1.9-4.2-4.2c0-2.3,1.9-4.2,4.2-4.2h12.9l-0.2-0.7C93.8,10.3,85.3,3.5,75.4,3.5c-4,0-7.9,1.1-11.3,3.3l-1.8,1.1h8.3
		c2.3,0,4.2,1.9,4.2,4.2c0,2.3-1.9,4.2-4.2,4.2h-3.2c-1.2,0-2.2,1-2.2,2.2s1,2.2,2.2,2.2h3.2c2.3,0,4.2,1.9,4.2,4.2
		c0,2.3-1.9,4.2-4.2,4.2H54.5l0.2,0.7c0.6,2.7,1.8,5.1,3.3,7.4l0.3,0.5l0.5-0.3c0.7-0.4,1.5-0.7,2.3-0.7H64.3z M30.8,29
		C19.9,29,10,35.4,5.5,45.3l-0.4,0.8h32.6l0.1-0.5c0.7-3.4,3.7-5.9,7.2-5.9h7.6l-0.8-1C46.6,32.6,38.9,29,30.8,29z M77,35.4
		c-1.2,0-2.2,1-2.2,2.2s1,2.2,2.2,2.2h13.6l0.2-0.2c3.9-4,6-9.2,6-14.8c0-0.6,0-1.1-0.1-1.6l0-0.6H83.4c-1.2,0-2.2,1-2.2,2.2
		s1,2.2,2.2,2.2H85c2.3,0,4.2,1.9,4.2,4.2s-1.9,4.2-4.2,4.2H77z M60.1,10.1c-3.9,4-6,9.2-6,14.8c0,0.6,0,1.1,0.1,1.6l0,0.6h16.4
		c1.2,0,2.2-1,2.2-2.2s-1-2.2-2.2-2.2h-3.2c-2.3,0-4.2-1.9-4.2-4.2c0-2.3,1.9-4.2,4.2-4.2h3.2c1.2,0,2.2-1,2.2-2.2s-1-2.2-2.2-2.2
		H60.2L60.1,10.1z M27.6,3.5c-4.7,0-8.6,3.8-8.6,8.6c0,4.7,3.8,8.6,8.6,8.6c4.7,0,8.6-3.8,8.6-8.6C36.1,7.4,32.3,3.5,27.6,3.5z"/>
</g>
<path class="st0" d="M27.6,7.3c-2.6,0-4.8,2.1-4.8,4.8s2.1,4.8,4.8,4.8s4.8-2.1,4.8-4.8S30.2,7.3,27.6,7.3z M27.6,13.7
	c-0.9,0-1.6-0.7-1.6-1.6s0.7-1.6,1.6-1.6c0.9,0,1.6,0.7,1.6,1.6C29.2,13,28.5,13.7,27.6,13.7z"/>
<path class="st0" d="M30.8,39.2H34v3.2h-3.2V39.2z"/>
<path class="st0" d="M24.4,39.2h3.2v3.2h-3.2V39.2z"/>
<path class="st0" d="M18,39.2h3.2v3.2H18V39.2z"/>
<path class="st0" d="M30.8,61.5H34v3.2h-3.2V61.5z"/>
<path class="st0" d="M24.4,61.5h3.2v3.2h-3.2V61.5z"/>
<path class="st0" d="M18,61.5h3.2v3.2H18V61.5z"/>
</svg>
