<?xml version="1.0" encoding="utf-8"?>
<!-- Generator: Adobe Illustrator 23.0.3, SVG Export Plug-In . SVG Version: 6.00 Build 0)  -->
<svg version="1.1" id="Layer_1" xmlns="http://www.w3.org/2000/svg" xmlns:xlink="http://www.w3.org/1999/xlink" x="0px" y="0px"
	 viewBox="0 0 99.8 99.8" style="enable-background:new 0 0 99.8 99.8;" xml:space="preserve">
<style type="text/css">
	.st0{fill:#1B83FF;}
	.st1{fill:#FFFFFF;}
</style>
<g id="XMLID_60_">
	<g id="XMLID_75_">
		<g id="XMLID_78_">
			<path class="st0" d="M88.6,8.4H14.7V1.2h73.9V8.4z M16.8,6.3h69.7v-3H16.8V6.3z"/>
		</g>
		<g id="XMLID_77_">
			<polygon class="st0" points="88.6,52.5 40.3,52.5 40.3,50.4 86.5,50.4 86.5,8.4 16.8,8.4 16.8,30.9 14.7,30.9 14.7,6.3 88.6,6.3 
							"/>
		</g>
		<g id="XMLID_76_">
			<rect x="40.3" y="45.3" class="st0" width="43.1" height="2.1"/>
		</g>
	</g>
	<g id="XMLID_70_">
		<g id="XMLID_74_">
			<path class="st0" d="M66,43.3c-3.5,0-6.8-1.1-9.5-3.3l1.3-1.6c2.4,1.8,5.2,2.8,8.2,2.8c7.3,0,13.3-6,13.3-13.3s-6-13.3-13.3-13.3
				s-13.3,6-13.3,13.3c0,0.3,0,0.7,0,1L50.6,29c0-0.4,0-0.8,0-1.2c0-8.5,6.9-15.4,15.4-15.4s15.4,6.9,15.4,15.4S74.5,43.3,66,43.3z"
				/>
		</g>
		<g id="XMLID_73_">
			
				<rect x="64.9" y="23.3" transform="matrix(0.8423 -0.539 0.539 0.8423 -1.8405 42.4309)" class="st0" width="13.4" height="2.1"/>
		</g>
		<g id="XMLID_72_">
			
				<rect x="58.8" y="17.6" transform="matrix(0.4835 -0.8753 0.8753 0.4835 9.4031 65.1167)" class="st0" width="2.1" height="13.9"/>
		</g>
		<g id="XMLID_71_">
			<rect x="65" y="27.9" class="st0" width="2.1" height="13.3"/>
		</g>
	</g>
	<g id="XMLID_61_">
		<g id="XMLID_64_">
			<rect x="19.8" y="40.2" class="st0" width="2.1" height="17.4"/>
		</g>
		<g id="XMLID_63_">
			<path class="st0" d="M26.5,30.7c-3,0-5.5-2.5-5.5-5.6s2.5-5.6,5.5-5.6S32,22,32,25.1S29.5,30.7,26.5,30.7z M26.5,21.5
				c-1.9,0-3.4,1.6-3.4,3.6s1.5,3.6,3.4,3.6s3.4-1.6,3.4-3.6S28.3,21.5,26.5,21.5z"/>
		</g>
		<g id="XMLID_62_">
			<path class="st0" d="M20.9,67L20,58.7h-5.2V36.1c0.1-2.1,2.1-4,4.1-4.1h35.9v6.2h-18L36.3,51l-2.1-0.1L34.7,36h17.9v-2H18.9
				c-0.9,0.1-2,1.2-2.1,2.1v20.4h5l1.1,10.2L20.9,67z"/>
		</g>
	</g>
</g>
<rect x="16.8" y="3.8" class="st1" width="21.9" height="6.9"/>
<g id="XMLID_79_">
	<g id="XMLID_94_">
		<g id="XMLID_97_">
			<path class="st0" d="M49.5,82.2c-1.3,0-2.5-0.5-3.4-1.4c-1.8-1.8-2.6-4.9-2.6-7c0-3.3,2.8-6,6.2-6s6.2,2.7,6.2,6
				c0,4.1-1.9,8.3-6.1,8.4C49.6,82.2,49.5,82.2,49.5,82.2z M49.6,69.9c-2.3,0-4.1,1.7-4.1,3.9c0,1.8,0.7,4.2,2,5.5
				c0.6,0.6,1.3,0.9,2.1,0.8c4.1-0.1,4.1-6.1,4.1-6.3C53.7,71.7,51.8,69.9,49.6,69.9z"/>
		</g>
		<g id="XMLID_96_">
			<path class="st0" d="M64,99.7h-2.1V89.2c0-1.5-0.1-1.7-3.4-1.8h-0.2c-0.1,0-5.9-1.6-8.6-1.5s-7.8,1.5-7.9,1.5h-0.3
				c-4,0.1-4.1,0.4-4.2,1.8v10.4h-2.1V89.2c0.1-3.7,2.8-3.8,6.1-3.9c0.9-0.2,5.5-1.5,8.3-1.5c2.9,0,8.2,1.3,9.1,1.5
				c2.8,0.1,5.3,0.2,5.3,3.9C64,89.2,64,99.7,64,99.7z"/>
		</g>
		<g id="XMLID_95_">
			<path class="st0" d="M59.9,99.7h-2.1v-4.4c0-1.5-1.6-2.8-3.6-2.8H45c-2,0-3.6,1.3-3.6,2.8v4.4h-2.1v-4.4c0-2.7,2.5-4.9,5.7-4.9
				h9.2c3.1,0,5.7,2.2,5.7,4.9C59.9,95.3,59.9,99.7,59.9,99.7z"/>
		</g>
	</g>
	<g id="XMLID_91_">
		<g id="XMLID_93_">
			<path class="st0" d="M66.9,72c-1.3,0-2.5-0.5-3.4-1.4c-1.8-1.8-2.6-4.9-2.6-7c0-3.3,2.8-6,6.2-6c3.4,0,6.2,2.7,6.2,6
				c0,4.1-1.9,8.3-6.1,8.4C67,72,67,72,66.9,72z M67,59.7c-2.3,0-4.1,1.7-4.1,3.9c0,1.8,0.7,4.2,2,5.5c0.6,0.6,1.3,0.9,2.1,0.8
				c4.1-0.1,4.1-6.1,4.1-6.3C71.1,61.4,69.3,59.7,67,59.7z"/>
		</g>
		<g id="XMLID_92_">
			<path class="st0" d="M59.1,77.1l-0.5-2c0.2-0.1,5.5-1.4,8.4-1.5c0.1,0,0.1,0,0.2,0c3.1,0,8.1,1.4,8.3,1.5l-0.6,2
				c-0.1,0-5.1-1.5-7.9-1.4C64.3,75.7,59.1,77.1,59.1,77.1z"/>
		</g>
	</g>
	<g id="XMLID_88_">
		<g id="XMLID_90_">
			<path class="st0" d="M32,72c-1.3,0-2.5-0.5-3.4-1.4c-1.8-1.8-2.6-4.9-2.6-7c0-3.3,2.8-6,6.2-6s6.2,2.7,6.2,6
				c0,4.1-1.9,8.3-6.1,8.4C32.1,72,32.1,72,32,72z M32.1,59.7c-2.3,0-4.1,1.7-4.1,3.9c0,1.8,0.7,4.2,2,5.5c0.6,0.6,1.3,0.9,2.1,0.8
				c4.1-0.1,4.1-6.1,4.1-6.3C36.2,61.4,34.4,59.7,32.1,59.7z"/>
		</g>
		<g id="XMLID_89_">
			<path class="st0" d="M24.2,77.1l-0.5-2c0.2-0.1,5.5-1.4,8.4-1.5c3.1,0,8.3,1.4,8.5,1.5l-0.6,2c0,0-4.9-1.4-7.7-1.4
				c-0.1,0-0.1,0-0.2,0C29.4,75.7,24.3,77.1,24.2,77.1z"/>
		</g>
	</g>
	<g id="XMLID_84_">
		<g id="XMLID_87_">
			<path class="st0" d="M84.3,82.2c-1.3,0-2.5-0.5-3.4-1.4c-1.8-1.8-2.6-4.9-2.6-7c0-3.3,2.8-6,6.2-6s6.2,2.7,6.2,6
				c0,4.1-1.9,8.3-6.1,8.4C84.4,82.2,84.4,82.2,84.3,82.2z M84.5,69.9c-2.3,0-4.1,1.7-4.1,3.9c0,1.8,0.7,4.2,2,5.5
				c0.6,0.6,1.3,0.9,2.1,0.8c4.1-0.1,4.1-6.1,4.1-6.3C88.5,71.7,86.7,69.9,84.5,69.9z"/>
		</g>
		<g id="XMLID_86_">
			<path class="st0" d="M98.8,99.7h-2.1V89.2c0-1.5-0.1-1.7-3.4-1.8h-0.2c-0.1,0-5.8-1.5-8.6-1.5c-2.7,0.1-7.8,1.5-7.9,1.5h-0.3
				c-4,0.1-4.1,0.4-4.2,1.8v10.4H70V89.2c0.1-3.7,2.8-3.8,6.1-3.9c0.9-0.2,5.5-1.5,8.3-1.5c2.9,0,8.2,1.3,9.1,1.5
				c2.8,0.1,5.3,0.2,5.3,3.9V99.7z"/>
		</g>
		<g id="XMLID_85_">
			<path class="st0" d="M94.7,99.7h-2.1v-4.4c0-1.5-1.6-2.8-3.6-2.8h-9.2c-2,0-3.6,1.3-3.6,2.8v4.4h-2.1v-4.4c0-2.7,2.5-4.9,5.7-4.9
				H89c3.1,0,5.7,2.2,5.7,4.9V99.7z"/>
		</g>
	</g>
	<g id="XMLID_80_">
		<g id="XMLID_83_">
			<path class="st0" d="M14.6,82.2c-1.3,0-2.5-0.5-3.4-1.4c-1.8-1.8-2.6-4.9-2.6-7c0-3.3,2.8-6,6.2-6s6.2,2.7,6.2,6
				c0,4.1-1.9,8.3-6.1,8.4C14.7,82.2,14.6,82.2,14.6,82.2z M14.7,69.9c-2.3,0-4.1,1.7-4.1,3.9c0,1.8,0.7,4.2,2,5.5
				c0.6,0.6,1.3,0.9,2.1,0.8c4.1-0.1,4.1-6.1,4.1-6.3C18.8,71.7,17,69.9,14.7,69.9z"/>
		</g>
		<g id="XMLID_82_">
			<path class="st0" d="M29.1,99.7H27V89.2c0-1.5-0.1-1.7-3.4-1.8h-0.2c-0.1,0-5.8-1.6-8.6-1.5s-7.9,1.5-8,1.5H6.5
				c-4,0.1-4.1,0.4-4.2,1.8v10.4h-2V89.2c0.1-3.7,2.8-3.8,6.1-3.9c0.9-0.2,5.5-1.5,8.3-1.5c2.9,0,8.2,1.3,9.1,1.5
				c2.8,0.1,5.3,0.2,5.3,3.9C29.1,89.2,29.1,99.7,29.1,99.7z"/>
		</g>
		<g id="XMLID_81_">
			<path class="st0" d="M25,99.7h-2.1v-4.4c0-1.5-1.6-2.8-3.6-2.8h-9.2c-2,0-3.6,1.3-3.6,2.8v4.4H4.4v-4.4c0-2.7,2.5-4.9,5.7-4.9
				h9.2c3.1,0,5.7,2.2,5.7,4.9V99.7z"/>
		</g>
	</g>
</g>
<path class="st0" d="M20.7,9.3L20.7,9.3c-0.5,0-0.9-0.4-0.9-0.9V6.5c0-0.5,0.4-0.9,0.9-0.9l0,0c0.5,0,0.9,0.4,0.9,0.9v1.9
	C21.7,8.9,21.3,9.3,20.7,9.3z"/>
<path class="st0" d="M24.2,9.3L24.2,9.3c-0.5,0-0.9-0.4-0.9-0.9V6.5c0-0.5,0.4-0.9,0.9-0.9l0,0c0.5,0,0.9,0.4,0.9,0.9v1.9
	C25.2,8.9,24.7,9.3,24.2,9.3z"/>
<path class="st0" d="M27.7,9.3L27.7,9.3c-0.5,0-0.9-0.4-0.9-0.9V6.5c0-0.5,0.4-0.9,0.9-0.9l0,0c0.5,0,0.9,0.4,0.9,0.9v1.9
	C28.7,8.9,28.2,9.3,27.7,9.3z"/>
<path class="st0" d="M31.2,9.3L31.2,9.3c-0.5,0-0.9-0.4-0.9-0.9V6.5c0-0.5,0.4-0.9,0.9-0.9l0,0c0.5,0,0.9,0.4,0.9,0.9v1.9
	C32.1,8.9,31.7,9.3,31.2,9.3z"/>
<path class="st0" d="M34.7,9.3L34.7,9.3c-0.5,0-0.9-0.4-0.9-0.9V6.5c0-0.5,0.4-0.9,0.9-0.9l0,0c0.5,0,0.9,0.4,0.9,0.9v1.9
	C35.6,8.9,35.2,9.3,34.7,9.3z"/>
</svg>
