<?xml version="1.0" encoding="utf-8"?>
<!-- Generator: Adobe Illustrator 23.0.3, SVG Export Plug-In . SVG Version: 6.00 Build 0)  -->
<svg version="1.1" id="Layer_1" xmlns="http://www.w3.org/2000/svg" xmlns:xlink="http://www.w3.org/1999/xlink" x="0px" y="0px"
	 viewBox="0 0 99.8 99.8" style="enable-background:new 0 0 99.8 99.8;" xml:space="preserve">
<style type="text/css">
	.st0{fill:#1B83FF;}
	.st1{fill:#FFFFFF;}
</style>
<g>
	<g>
		<g>
			<rect x="53.3" y="1.8" class="st0" width="1.6" height="7.9"/>
		</g>
	</g>
	<g>
		<g>
			<rect x="46.2" y="1.9" class="st0" width="1.6" height="7.9"/>
		</g>
	</g>
</g>
<g>
	<g>
		<polygon class="st0" points="51.8,30.3 60.5,30.3 60.5,28.3 49.8,28.3 49.8,38 51.8,38 		"/>
	</g>
</g>
<g>
	<g>
		<path class="st0" d="M58.6,45v-4c4.6-2.7,7.8-7.7,7.8-13.5v-0.1c1.7-0.4,2.9-1.9,2.9-3.8c0-1.7-0.7-2.9-1-3.3
			c0-0.2,0.1-0.4,0.1-0.6v-1.9c0-9.7-7.9-17.5-17.5-17.5S33.3,8.1,33.3,17.8v1.9c0,0.2,0,0.4,0.1,0.6c-0.4,0.5-1,1.6-1,3.3
			c0,1.8,1.2,3.3,2.9,3.8v0.1c0,5.7,3.1,10.8,7.8,13.5v4 M51.8,2.3c8,0.5,14.3,7,14.6,15c-3.5-1.8-10.7-2.4-15.5-2.4
			s-12.1,0.6-15.5,2.4c0.3-8,6.6-14.5,14.6-15 M35.2,25.3c-0.6-0.3-1-1-1-1.7c0-0.6,0.1-1,0.2-1.4c0.2,0.2,0.5,0.4,0.7,0.6
			L35.2,25.3L35.2,25.3z M45,45v-3c1.8,0.7,3.8,1.1,5.8,1.1c2.1,0,4-0.4,5.8-1.1v3 M64.4,27.5c0,7.5-6.1,13.6-13.6,13.6
			S37.2,35,37.2,27.5v-3.8c4.3,1.6,10.9,1.8,13.6,1.8s9.3-0.2,13.6-1.8V27.5z M50.8,23.6c-9.7,0-15.6-2-15.6-3.9
			c0.2-1,5.9-2.9,15.6-2.9s15.4,1.9,15.6,2.9C66.4,21.7,60.5,23.6,50.8,23.6z M66.4,25.3v-2.5c0.3-0.2,0.5-0.4,0.7-0.6
			c0.1,0.4,0.2,0.8,0.2,1.4C67.3,24.4,66.9,25,66.4,25.3z"/>
	</g>
</g>
<g>
	<g>
		<path class="st0" d="M67.5,43.7"/>
	</g>
</g>
<g>
	<g>
		<polygon class="st0" points="45,44.2 43,44.2 43,49.2 37.1,43 23.1,50.8 24.1,52.6 36.7,45.5 45,54.1 		"/>
	</g>
</g>
<g>
	<g>
		<polygon class="st0" points="56.6,44.2 58.6,44.2 58.6,49.2 64.5,43 78.4,50.8 77.5,52.6 64.9,45.5 56.6,54.1 		"/>
	</g>
</g>
<g>
	<g>
		<path class="st0" d="M48.4,62.1C41,62.1,25,62,18.5,61.3c-3.9-0.4-6.5-1.7-7.9-3.8c-1.3-2-0.9-3.9-0.7-4.6c0.7-2.5,4-3.9,8.9-3.8
			c2.5,0.1,4.6,0.8,5.9,2.2c0.8,0.9,1.3,2,1.2,3.2c0,0.9-0.5,1.7-1.3,2.3c-1.4,1.1-3.7,1.3-5.3,1c-1.4-0.3-2.5-1.1-2.7-2.3
			c-0.2-1,0.1-1.9,0.9-2.4c0.4-0.3,1-0.2,1.3,0.2s0.2,1-0.2,1.3c-0.1,0.1-0.2,0.3-0.1,0.5c0.1,0.4,0.5,0.7,1.2,0.8
			c1.4,0.3,2.9,0,3.7-0.6c0.3-0.3,0.5-0.6,0.5-0.9c0-0.6-0.2-1.2-0.7-1.8c-0.9-1-2.5-1.5-4.5-1.6c-3.9-0.1-6.5,0.9-7,2.4
			c-0.1,0.5-0.4,1.7,0.5,3c1,1.6,3.3,2.6,6.5,2.9c8.1,0.9,33.1,0.8,33.4,0.8c0.5,0,1,0.4,1,1c0,0.5-0.4,1-1,1
			C51.9,62.1,50.5,62.1,48.4,62.1z"/>
	</g>
</g>
<g>
	<g>
		<path class="st0" d="M53.2,62.1c-2.1,0-3.5,0-3.8,0c-0.5,0-1-0.4-1-1c0-0.5,0.4-1,1-1c0.3,0,25.3,0.1,33.4-0.8
			c3.2-0.4,5.5-1.4,6.5-2.9c0.9-1.3,0.6-2.5,0.5-3c-0.5-1.6-3.1-2.5-7-2.4c-2,0-3.6,0.6-4.5,1.6c-0.5,0.5-0.7,1.1-0.7,1.8
			c0,0.4,0.2,0.7,0.5,0.9c0.8,0.6,2.3,0.9,3.7,0.6c0.7-0.1,1.1-0.4,1.2-0.8c0-0.2,0-0.4-0.1-0.5c-0.4-0.3-0.5-0.9-0.2-1.3
			c0.3-0.4,0.9-0.5,1.3-0.2c0.7,0.5,1.1,1.5,0.9,2.4c-0.3,1.2-1.3,2-2.7,2.3c-1.6,0.3-3.8,0.1-5.3-1c-0.8-0.6-1.2-1.4-1.3-2.3
			c-0.1-1.1,0.4-2.3,1.2-3.2c1.3-1.4,3.3-2.1,5.9-2.2c4.9-0.1,8.1,1.3,8.9,3.8c0.2,0.7,0.6,2.7-0.7,4.6c-1.4,2.1-4.1,3.4-7.9,3.8
			C76.7,62.1,60.6,62.1,53.2,62.1z"/>
	</g>
</g>
<g>
	<g>
		<path class="st0" d="M59.2,99.3H28.7c-7,0-9.3-4.7-9.4-4.9c0-0.1,0-0.1-0.1-0.2L9.7,55.9c-0.1-0.5,0.2-1,0.7-1.2
			c0.5-0.1,1,0.2,1.2,0.7l9.6,38.3c0.3,0.5,2.2,3.7,7.6,3.7h30.5c0.5,0,1,0.4,1,1C60.2,98.9,59.7,99.3,59.2,99.3z"/>
	</g>
</g>
<g>
	<g>
		<path class="st0" d="M72.9,99.3H42.4c-0.5,0-1-0.4-1-1c0-0.5,0.4-1,1-1h30.5c5.4,0,7.3-3.2,7.6-3.7L90,55.4
			c0.1-0.5,0.7-0.8,1.2-0.7s0.8,0.7,0.7,1.2l-9.6,38.4c0,0.1,0,0.1-0.1,0.2S79.9,99.3,72.9,99.3z"/>
	</g>
</g>
<g>
	<g>
		<path class="st1" d="M12.3,67.3c0,0-0.9,1.9,0.9,2.2c1.7,0.3,8.6,0,8.6,0s0.6,0.2,1.2,1c0.6,0.9,0.6,8.2,0.6,8.2s-0.2,1.7-1.7,2
			s-4.5,1.3-5.5,1.2c-1-0.1-3.3-0.6-4.2-2.2s-2.1-9.8-2.1-9.8S10,67.4,12.3,67.3z"/>
	</g>
	<g>
		<path class="st0" d="M16.4,82.7c-0.1,0-0.1,0-0.2,0c-1.3-0.1-3.9-0.8-4.9-2.6c-0.9-1.7-2-9.3-2.2-10.1v-0.1c0-1.3,0.8-3.3,3.1-3.4
			c0.3,0,0.6,0.1,0.8,0.4s0.2,0.6,0.1,0.8c-0.1,0.2-0.2,0.7-0.1,0.8c0,0.1,0.2,0.1,0.3,0.1c1.3,0.2,6.5,0.1,8.4,0c0.1,0,0.2,0,0.3,0
			c0.2,0,1,0.3,1.7,1.4c0.6,0.9,0.7,5.2,0.7,8.7c-0.1,0.9-0.7,2.5-2.3,2.8c-0.5,0.1-1.1,0.3-1.7,0.4C18.5,82.4,17.2,82.7,16.4,82.7z
			 M10.9,69.8c0.5,3.1,1.4,8.4,2,9.5s2.5,1.7,3.5,1.8c0.5,0,2.3-0.4,3.4-0.7c0.7-0.2,1.3-0.3,1.8-0.5c0.9-0.2,1-1.2,1-1.2
			c0-3.2-0.2-7-0.4-7.7c-0.2-0.3-0.4-0.5-0.6-0.6c-1.3,0.1-6.9,0.3-8.6,0c-0.9-0.2-1.4-0.7-1.6-1.1c-0.1-0.2-0.2-0.4-0.2-0.6
			C10.9,69.1,10.9,69.6,10.9,69.8z"/>
	</g>
</g>
<g>
	<g>
		<path class="st1" d="M88.3,67.3c0,0,0.9,1.9-0.9,2.2c-1.7,0.3-8.6,0-8.6,0s-0.6,0.2-1.2,1C77,71.4,77,78.7,77,78.7s0.2,1.7,1.7,2
			s4.5,1.3,5.5,1.2c1-0.1,3.3-0.6,4.2-2.2c0.9-1.6,2.1-9.8,2.1-9.8S90.6,67.4,88.3,67.3z"/>
	</g>
	<g>
		<path class="st0" d="M84.1,82.7c-0.8,0-2.1-0.3-3.8-0.8c-0.7-0.2-1.3-0.3-1.7-0.4c-1.7-0.4-2.3-1.9-2.3-2.7c0-3.5,0.1-7.8,0.7-8.7
			c0.7-1.1,1.5-1.4,1.7-1.4c0.1,0,0.2,0,0.3,0c1.9,0.1,7,0.3,8.4,0c0.1,0,0.3-0.1,0.3-0.1c0.1-0.2,0-0.6-0.1-0.8
			c-0.1-0.3-0.1-0.6,0.1-0.9s0.5-0.4,0.8-0.4c2.3,0.1,3.1,2.1,3.1,3.4V70c-0.1,0.9-1.2,8.5-2.2,10.1c-1.1,1.9-3.6,2.5-4.9,2.6
			C84.3,82.7,84.2,82.7,84.1,82.7z M78,78.6c0,0.2,0.2,1,1,1.2c0.5,0.1,1.1,0.3,1.8,0.5c1.2,0.3,2.9,0.8,3.4,0.7
			c1-0.1,2.9-0.6,3.5-1.8c0.6-1,1.5-6.3,2-9.5c0-0.2-0.1-0.7-0.3-1.1c0,0.2-0.1,0.4-0.2,0.6c-0.2,0.4-0.6,0.9-1.6,1.1
			c-1.7,0.3-7.3,0.1-8.6,0c-0.1,0.1-0.4,0.2-0.6,0.6C78.2,71.6,78,75.4,78,78.6z M90.6,69.8L90.6,69.8L90.6,69.8z"/>
	</g>
</g>
<g>
	<g>
		<g>
			<path class="st1" d="M49.1,92c-5.9,0-11.8,0.1-17.7,0.1c-1-7.7-2.1-15.5-3.1-23.2c6.9,0,13.7,0.1,20.6,0.1
				C48.9,76.6,49,84.3,49.1,92z"/>
		</g>
		<g>
			<path class="st0" d="M31.4,93c-0.4,0-0.8-0.3-0.9-0.8L27.4,69c0-0.3,0-0.5,0.2-0.7S28,68,28.3,68l20.6,0.1c0.5,0,0.9,0.4,0.9,0.9
				L50,92c0,0.2-0.1,0.5-0.3,0.6c-0.2,0.2-0.4,0.3-0.6,0.3L31.4,93L31.4,93z M29.3,69.7l2.9,21.5l16.1-0.1L48,69.8L29.3,69.7z"/>
		</g>
	</g>
	<g>
		<g>
			<path class="st1" d="M72.3,78.3c-6.5,0-12.9,0-19.4,0c0-3.1,0.1-6.2,0.1-9.3c6.9,0,13.7,0.1,20.6,0.1
				C73.2,72.2,72.8,75.2,72.3,78.3z"/>
		</g>
		<g>
			<path class="st0" d="M72.3,79.2L72.3,79.2H52.9c-0.2,0-0.5-0.1-0.6-0.3c-0.2-0.2-0.3-0.4-0.3-0.6l0.1-9.3c0-0.5,0.4-0.9,0.9-0.9
				l0,0l20.6,0.1c0.3,0,0.5,0.1,0.7,0.3c0.2,0.2,0.2,0.4,0.2,0.7l-1.3,9.2C73.1,78.8,72.8,79.2,72.3,79.2z M53.8,77.4h17.8l1-7.4
				l-18.7-0.1L53.8,77.4z"/>
		</g>
	</g>
	<g>
		<g>
			<path class="st1" d="M70.5,91.9c-5.9,0-11.8,0.1-17.7,0.1c0-3.1,0.1-6.2,0.1-9.3c6.3,0,12.6,0,18.9,0
				C71.3,85.8,70.9,88.8,70.5,91.9z"/>
		</g>
		<g>
			<path class="st0" d="M52.7,92.8c-0.2,0-0.5-0.1-0.6-0.3c-0.2-0.2-0.3-0.4-0.3-0.6l0.1-9.3c0-0.5,0.4-0.9,0.9-0.9h18.9l0,0
				c0.3,0,0.5,0.1,0.7,0.3c0.2,0.2,0.2,0.4,0.2,0.7L71.3,92c-0.1,0.4-0.4,0.8-0.9,0.8H52.7L52.7,92.8z M70.5,91.9L70.5,91.9
				L70.5,91.9z M53.7,83.6l-0.1,7.5L69.7,91l1-7.4H53.7z"/>
		</g>
	</g>
</g>
<path class="st0" d="M37.8,15.7L37.8,15.7c-0.3,0-0.6-0.3-0.6-0.6v-1.2c0-0.3,0.3-0.6,0.6-0.6l0,0c0.3,0,0.6,0.3,0.6,0.6v1.2
	C38.4,15.4,38.1,15.7,37.8,15.7z"/>
<path class="st0" d="M40,15L40,15c-0.3,0-0.6-0.3-0.6-0.6v-1.2c0-0.3,0.3-0.6,0.6-0.6l0,0c0.3,0,0.6,0.3,0.6,0.6v1.2
	C40.6,14.8,40.3,15,40,15z"/>
<path class="st0" d="M42.2,14.6L42.2,14.6c-0.3,0-0.6-0.3-0.6-0.6v-1.2c0-0.3,0.3-0.6,0.6-0.6l0,0c0.3,0,0.6,0.3,0.6,0.6V14
	C42.8,14.4,42.6,14.6,42.2,14.6z"/>
<path class="st0" d="M44.4,14.4L44.4,14.4c-0.3,0-0.6-0.3-0.6-0.6v-1.2c0-0.3,0.3-0.6,0.6-0.6l0,0c0.3,0,0.6,0.3,0.6,0.6v1.2
	C45,14.1,44.8,14.4,44.4,14.4z"/>
</svg>
