<?xml version="1.0" encoding="utf-8"?>
<!-- Generator: Adobe Illustrator 23.0.3, SVG Export Plug-In . SVG Version: 6.00 Build 0)  -->
<svg version="1.1" id="Layer_1" xmlns="http://www.w3.org/2000/svg" xmlns:xlink="http://www.w3.org/1999/xlink" x="0px" y="0px"
	 viewBox="0 0 99.8 99.8" style="enable-background:new 0 0 99.8 99.8;" xml:space="preserve">
<style type="text/css">
	.st0{fill:#1B83FF;}
</style>
<g>
	<g>
		<g>
			<g>
				<path class="st0" d="M40.5,47.4c-0.9,0-1.6-0.7-1.6-1.6v-3.3c0-0.9,0.7-1.6,1.6-1.6h0.1c0.9,0,1.6,0.7,1.6,1.6v3.3
					C42.2,46.7,41.5,47.4,40.5,47.4z"/>
			</g>
		</g>
		<g>
			<g>
				<path class="st0" d="M32.4,47.4c-0.5,0-0.9-0.2-1.3-0.5c-0.3-0.3-0.4-0.7-0.4-1l0-3.3c0-0.9,0.7-1.6,1.6-1.6h0.1
					c0.9,0,1.6,0.7,1.6,1.6v3.3C34.1,46.7,33.4,47.4,32.4,47.4z"/>
			</g>
		</g>
		<g>
			<g>
				<path class="st0" d="M24.2,47.4c-0.9,0-1.6-0.7-1.6-1.6v-3.3c0-0.9,0.7-1.6,1.6-1.6c1,0,1.7,0.7,1.7,1.6v3.3
					C25.9,46.7,25.2,47.4,24.2,47.4z"/>
			</g>
		</g>
		<g>
			<g>
				<path class="st0" d="M16.1,47.4c-0.9,0-1.6-0.7-1.6-1.6v-3.3c0-0.9,0.7-1.6,1.6-1.6h0.1c0.9,0,1.6,0.7,1.6,1.6v3.3
					C17.8,46.7,17.1,47.4,16.1,47.4z"/>
			</g>
		</g>
		<g>
			<g>
				<path class="st0" d="M8,47.4c-0.9,0-1.6-0.7-1.6-1.6v-3.3c0-0.9,0.7-1.6,1.6-1.6h0.1c0.9,0,1.6,0.7,1.6,1.6v3.3
					C9.7,46.7,9,47.4,8,47.4z"/>
			</g>
		</g>
	</g>
</g>
<g>
	<rect x="17.5" y="35.2" class="st0" width="26.1" height="2.5"/>
</g>
<g>
	<rect x="17.5" y="49.7" class="st0" width="26.1" height="2.5"/>
</g>
<g>
	<path class="st0" d="M70.5,97.8c-10.3,0-27.7-4.4-27.7-20.9c0-0.7,0.5-1.2,1.2-1.2s1.2,0.5,1.2,1.2c0,18.1,24.2,18.3,25.2,18.3
		c1.5,0,2.7-0.5,3.6-1.5c2.5-3,1.8-9.6,1.8-9.9c-0.1-0.3,0-0.6,0.2-0.9l5.3-7.4h-5c-0.7,0-1.2-0.5-1.2-1.2c0-0.7,0.5-1.2,1.2-1.2
		h5.4l-2-4.2c-0.1-0.2-0.2-0.4-0.2-0.5v-0.4h-3.2c-9.2,0-16.9-2.5-22.3-7.1c-2.5-2.1-4.6-4.9-6-8.3L48,52.3h-9.3
		c0.7-0.6,1.3-1.3,1.8-2c0.2-0.3,0.6-0.5,1.1-0.5h5.7l-0.1-0.5c-0.3-1.8-0.5-3.2-0.5-4.5c0-2,0.3-4.2,1-6.5l0.1-0.5h-6.3
		c-0.3,0-0.7-0.2-1.1-0.6c-0.4-0.7-0.9-1.3-1.6-1.9H49l0.1-0.2c4.1-8.1,12.8-13.3,24-14.2l0.8-0.1l-0.6-0.6
		C69.5,16.3,60.9,9.7,46.2,9.7c-1.9,0-3.8,0.1-5.8,0.3l-0.1,0c-11.9,1-19.1,6.8-19.2,6.9c-8.7,6.3-12,14.6-13,17.9l-0.2,0.5h15.1
		c-0.7,0.6-1.3,1.3-1.8,2c-0.2,0.3-0.7,0.5-1.1,0.5H2.5v11.9h18.1c0.3,0,0.7,0.2,1.1,0.6c0.4,0.7,0.9,1.3,1.6,1.9H7.8l0.1,0.5
		c1,4.8,5.6,10.8,7.6,13c0.2,0.2,0.3,0.5,0.3,0.8v27.4c0,0.7-0.5,1.2-1.2,1.2s-1.2-0.5-1.2-1.2V67l-0.1-0.1c-2.3-2.6-7-9-7.9-14.5
		l-0.1-0.3H1.6c-0.7,0-1.2-0.5-1.2-1.2V36.4c0-0.7,0.5-1.2,1.2-1.2h4.1l0.1-0.3c1.2-4.4,5.4-15.4,17.6-22.4c2.1-1.2,4.6-2.2,6.9-3.1
		c2.7-0.9,5.5-1.5,8-1.9C41,7.2,43.6,7,46.1,7c19.6,0,29.1,11.3,30.7,13.6l0.1,0.2h21.2c0.7,0,1.2,0.5,1.4,1.3l0,44.5
		c0,0.7-0.5,1.2-1.2,1.2H82.2l2.8,6l0,0.1c0,0,0,0,0,0c0,0,0,0.1,0,0.1v0.7c0,0,0,0-0.1,0.2c0,0-0.1,0.1-0.1,0.2l-6.4,9l0,0.1
		c0.2,1.8,0.5,7.9-2.4,11.3C74.8,97,72.9,97.8,70.5,97.8z M90.6,65.3H97v-42h-6.4V65.3z M76.2,23.2C58.3,23.2,49,34,49,44.7
		c0,5.4,2.4,10.4,6.6,14.1c4.8,4.2,11.9,6.4,20.7,6.4h11.6v-42H76.2z"/>
</g>
</svg>
