<?xml version="1.0" encoding="utf-8"?>
<!-- Generator: Adobe Illustrator 23.0.3, SVG Export Plug-In . SVG Version: 6.00 Build 0)  -->
<svg version="1.1" id="Layer_1" xmlns="http://www.w3.org/2000/svg" xmlns:xlink="http://www.w3.org/1999/xlink" x="0px" y="0px"
	 viewBox="0 0 99.8 99.8" style="enable-background:new 0 0 99.8 99.8;" xml:space="preserve">
<style type="text/css">
	.st0{fill:#1B83FF;}
</style>
<g id="XMLID_17249_">
	<g id="XMLID_18877_">
		<polygon class="st0" points="24,99.8 0.2,99.8 0.2,89.3 24,89.3 24,91.6 2.4,91.6 2.4,97.6 24,97.6 		"/>
	</g>
	<g id="XMLID_18876_">
		<polygon class="st0" points="24,91.6 2.2,91.6 2.2,83.1 26.1,83.1 26.1,85.4 4.5,85.4 4.5,89.3 24,89.3 		"/>
	</g>
	<g id="XMLID_18875_">
		<polygon class="st0" points="25.6,85.4 6.9,85.4 15,61.5 27.8,61.5 34.4,76.2 32.3,77 26.3,63.7 16.7,63.7 10.1,83.1 25.6,83.1 		
			"/>
	</g>
	<g id="XMLID_18874_">
		<path class="st0" d="M33.4,63.7H10.5V53.2h22.9V63.7z M12.7,61.5h18.4v-6H12.7V61.5z"/>
	</g>
	<g id="XMLID_18873_">
		<path class="st0" d="M21.9,53.4c-4,0-7.3-3.3-7.3-7.3s3.3-7.3,7.3-7.3s7.3,3.3,7.3,7.3S26,53.4,21.9,53.4z M21.9,41
			c-2.8,0-5.1,2.3-5.1,5.1s2.3,5.1,5.1,5.1s5.1-2.3,5.1-5.1S24.7,41,21.9,41z"/>
	</g>
</g>
<g>
	<path class="st0" d="M71.2,93.6c0.9,0,1.7-0.7,1.7-1.7v-3.3c0-0.9-0.7-1.7-1.7-1.7c-0.9,0-1.7,0.7-1.7,1.7V92
		C69.6,92.9,70.3,93.6,71.2,93.6z M62.9,93.6c0.9,0,1.7-0.7,1.7-1.7v-3.3c0-0.9-0.7-1.7-1.7-1.7c-0.9,0-1.7,0.7-1.7,1.7V92
		C61.3,92.9,62,93.6,62.9,93.6z M54.6,93.6c0.9,0,1.7-0.7,1.7-1.7v-3.3c0-0.9-0.7-1.7-1.7-1.7c-0.9,0-1.7,0.7-1.7,1.7V92
		C53,92.9,53.7,93.6,54.6,93.6z M46.4,93.6c0.9,0,1.7-0.7,1.7-1.7v-3.3c0-0.9-0.7-1.7-1.7-1.7c-0.9,0-1.7,0.7-1.7,1.7V92
		C44.7,92.9,45.4,93.6,46.4,93.6z M38.1,93.6c0.9,0,1.7-0.7,1.7-1.7v-3.3c0-0.9-0.7-1.7-1.7-1.7s-1.7,0.7-1.7,1.7V92
		C36.4,92.9,37.1,93.6,38.1,93.6z M79.5,93.6c0.9,0,1.7-0.7,1.7-1.7v-3.3c0-0.9-0.7-1.7-1.7-1.7c-0.9,0-1.7,0.7-1.7,1.7V92
		C77.9,92.9,78.6,93.6,79.5,93.6z M87.8,93.6c0.9,0,1.7-0.7,1.7-1.7v-3.3c0-0.9-0.7-1.7-1.7-1.7c-0.9,0-1.7,0.7-1.7,1.7V92
		C86.1,92.9,86.9,93.6,87.8,93.6z"/>
</g>
<g>
	<path class="st0" d="M26.6,60.5c0.6,0,1-0.4,1-1v-2c0-0.6-0.4-1-1-1s-1,0.4-1,1v2C25.6,60,26.1,60.5,26.6,60.5z M21.6,60.5
		c0.6,0,1-0.4,1-1v-2c0-0.6-0.4-1-1-1s-1,0.4-1,1v2C20.7,60,21.1,60.5,21.6,60.5z M16.7,60.5c0.6,0,1-0.4,1-1v-2c0-0.6-0.4-1-1-1
		s-1,0.4-1,1v2C15.7,60,16.1,60.5,16.7,60.5z"/>
</g>
<g>
	<path class="st0" d="M87.8,83.3H38.1c-0.7,0-1.3-0.6-1.3-1.3v-5c0-4.3,3.5-7.9,7.9-7.9h36.5c4.3,0,7.9,3.5,7.9,7.9v5
		C89.1,82.7,88.5,83.3,87.8,83.3z M39.3,80.8h47.2V77c0-3-2.4-5.4-5.4-5.4H44.7c-3,0-5.4,2.4-5.4,5.4V80.8z M77.9,63.4H48
		c-0.7,0-1.3-0.6-1.3-1.3c0-8.1,5.9-12.9,10.6-16.8c1.7-1.4,3.3-2.7,4.4-3.9c-0.8,0.3-1.6,0.4-2.6,0.4c-1.7,0-3.2-0.9-4-1.5
		c-2.9,1.2-4.7,2.8-4.8,2.8c-0.4,0.4-1.1,0.4-1.5,0.1l-6.6-4.8c-0.4-0.3-0.6-0.9-0.5-1.4c1.9-5.9,10.4-13.3,11.9-14.6l1.8-3.8
		c0.1-0.2,0.3-0.4,0.6-0.6c1.9-1,4-1.5,5.5-1.8V9.1c0-0.4,0.2-0.8,0.5-1s0.7-0.3,1.1-0.2C63.4,8,70.4,10,73,17.4
		c9.4,3.5,14.2,10.7,14.2,21.5c0,7.1-2.6,11.2-5,14.8c-1.8,2.8-3.3,5.2-3.3,8.4C79.1,62.8,78.5,63.4,77.9,63.4z M49.3,60.9h27.3
		c0.3-3.4,2-5.9,3.7-8.5c2.2-3.5,4.6-7.1,4.6-13.4c0-10-4.3-16.3-13.1-19.4c-0.4-0.1-0.7-0.4-0.8-0.8c-1.4-4.6-4.8-6.8-6.8-7.8v6.5
		c0,0.6-0.5,1.2-1.1,1.2c-1.2,0.2-3.4,0.6-5.4,1.5l-1.8,3.7c-0.1,0.2-0.2,0.3-0.3,0.4s-8.6,7.2-11,12.8l5.1,3.7c1-0.7,2.9-2,5.4-2.9
		c0.5-0.2,1-0.1,1.3,0.3c0,0,1.3,1.3,2.8,1.3c2,0,3.2-0.8,3.6-2.4c0.2-0.6,0.8-1,1.4-0.9c1,0.2,1.6,0.9,1.6,2.1
		c0,3.6-3.2,6.2-6.9,9.2C54.7,50.8,49.9,54.7,49.3,60.9z"/>
</g>
<g>
	<path class="st0" d="M97.3,99.8H28.5V85.3c0-2.5,2-4.6,4.6-4.6h59.7c2.5,0,4.6,2,4.6,4.6L97.3,99.8L97.3,99.8z M31,97.3h63.8v-12
		c0-1.1-0.9-2.1-2.1-2.1H33.1c-1.1,0-2.1,0.9-2.1,2.1C31,85.3,31,97.3,31,97.3z"/>
</g>
<g>
	<path class="st0" d="M78.7,71.7H47.2c-3,0-5.4-2.4-5.4-5.4s2.4-5.4,5.4-5.4h31.5c3,0,5.4,2.4,5.4,5.4S81.7,71.7,78.7,71.7z
		 M47.2,63.4c-1.6,0-2.9,1.3-2.9,2.9s1.3,2.9,2.9,2.9h31.5c1.6,0,2.9-1.3,2.9-2.9s-1.3-2.9-2.9-2.9H47.2z"/>
</g>
</svg>
