<?xml version="1.0" encoding="utf-8"?>
<!-- Generator: Adobe Illustrator 23.0.3, SVG Export Plug-In . SVG Version: 6.00 Build 0)  -->
<svg version="1.1" id="Layer_1" xmlns="http://www.w3.org/2000/svg" xmlns:xlink="http://www.w3.org/1999/xlink" x="0px" y="0px"
	 viewBox="0 0 99.8 99.8" style="enable-background:new 0 0 99.8 99.8;" xml:space="preserve">
<style type="text/css">
	.st0{fill:#1B83FF;}
</style>
<g id="surface145054">
	<g>
		<g>
			<path class="st0" d="M88.5,99.1c-2.2,0-4.2-1-5.7-2.7c-5-6-9.6-12.4-13.7-18.9c-1.1-1.5-2.7-2.4-4.5-2.4H34.5
				c-1.9,0-3.5,0.9-4.5,2.4c-4,6.6-8.6,12.9-13.7,19c-1.5,1.7-3.6,2.7-5.8,2.7c-0.7,0-1.3-0.1-2-0.3c-2.8-0.8-5-3.1-5.4-6
				c-2.5-14.6-4.4-36.1,1-56.2c1.5-5.5,5.2-10.1,10.3-12.8c3.1-1.6,6.3-2.4,9.6-2.4c2.3,0,4.6,0.4,6.8,1.2c2.4,0.8,4.5,2,6.4,3.7
				c1.2,1,2.4,1.4,3.6,1.4h6.1v-5.3c0-4.1,3.4-7.5,7.5-7.5c2.9,0,5.3-2.4,5.3-5.3v-8c0-0.6,0.5-1.1,1.1-1.1s1.1,0.5,1.1,1.1v8
				c0,4.1-3.4,7.5-7.5,7.5c-2.9,0-5.3,2.4-5.3,5.3v5.3h9.4c1.3,0,2.6-0.5,3.5-1.3c2.7-2.4,6.1-4,9.9-4.7c1.1-0.2,2.2-0.3,3.3-0.3
				c9.4,0,17.7,6.5,20.1,15.9c5.6,21.6,2.8,44,0.6,55.4c-0.5,3-2.6,5.3-5.4,6C89.8,99,89.2,99.1,88.5,99.1z M64.7,72.8
				c2.6,0,5,1.4,6.4,3.6c4,6.4,8.6,12.7,13.5,18.7c1.1,1.3,2.5,2,4.1,2c0.5,0,1-0.1,1.4-0.2c2.1-0.6,3.5-2.1,3.9-4.2
				c2.4-14.2,4.3-35.2-0.7-54.6c-2.2-8.4-9.5-14.2-17.9-14.2c-1,0-2,0.1-3,0.3c-3.2,0.5-6.3,2-8.7,4.1c-0.5,0.4-1,0.7-1.4,0.9
				l-0.2,0.1l-2.6,7.6c-0.6,1.8-2.2,3-4.1,3H44c-1.9,0-3.5-1.2-4.1-3l-2.6-7.6l-0.2-0.1c-0.5-0.3-0.9-0.6-1.3-0.9
				c-1.7-1.5-3.6-2.6-5.7-3.3c-2-0.7-4-1.1-6.1-1.1c-2.9,0-5.9,0.7-8.5,2.1c-4.5,2.3-7.8,6.5-9.2,11.4c-4.2,15.6-4.5,34.2-1,55.3
				c0.3,2.1,1.8,3.6,3.9,4.2c0.5,0.1,1,0.2,1.4,0.2c1.6,0,3.1-0.7,4.1-2c5.4-6.5,9.9-12.6,13.5-18.7c1.3-2.2,3.7-3.6,6.4-3.6H64.7z
				 M41.9,36.1c0.2,0.9,1,1.4,2,1.4h11.4c1,0,1.9-0.7,2-1.6l2-5.9h-19v0.1h-0.4L41.9,36.1z"/>
		</g>
		<g>
			<path class="st0" d="M65.7,68.6c-0.6,0-1.1-0.5-1.1-1.1v-3.2c0-0.6,0.5-1.1,1.1-1.1s1.1,0.5,1.1,1.1v3.2
				C66.8,68.1,66.3,68.6,65.7,68.6z M57.7,68.6c-0.6,0-1.1-0.5-1.1-1.1v-3.2c0-0.6,0.5-1.1,1.1-1.1s1.1,0.5,1.1,1.1v3.2
				C58.8,68.1,58.3,68.6,57.7,68.6z M49.6,68.6c-0.6,0-1.1-0.5-1.1-1.1v-3.2c0-0.6,0.5-1.1,1.1-1.1s1.1,0.5,1.1,1.1v3.2
				C50.7,68.1,50.2,68.6,49.6,68.6z M41.6,68.6c-0.6,0-1.1-0.5-1.1-1.1v-3.2c0-0.6,0.5-1.1,1.1-1.1s1.1,0.5,1.1,1.1v3.2
				C42.7,68.1,42.2,68.6,41.6,68.6z M33.5,68.6c-0.6,0-1.1-0.5-1.1-1.1v-3.2c0-0.6,0.5-1.1,1.1-1.1c0.3,0,0.7,0.1,0.9,0.4
				c0.1,0.1,0.3,0.4,0.2,0.7l0,3.3C34.6,68.1,34.1,68.6,33.5,68.6z M38.4,59c-0.6,0-1.1-0.5-1.1-1.1s0.5-1.1,1.1-1.1h22.5
				c0.6,0,1.1,0.5,1.1,1.1S61.5,59,60.9,59H38.4z M74.5,57.3c-1.9,0-3.5-1.6-3.5-3.5s1.6-3.5,3.5-3.5c2,0,3.5,1.5,3.5,3.5
				C78,55.7,76.4,57.3,74.5,57.3z M24,57.3c-1.5,0-2.7-1.2-2.7-2.7v-5.3H16c-1.5,0-2.7-1.2-2.7-2.7V45c0-1.5,1.2-2.7,2.7-2.7h5.3V37
				c0-1.5,1.2-2.7,2.7-2.7h1.6c1.5,0,2.7,1.2,2.7,2.7v5.3h5.3c1.5,0,2.7,1.2,2.7,2.7v1.6c0,1.5-1.2,2.7-2.7,2.7h-5.3v5.3
				c0,1.5-1.2,2.7-2.7,2.7H24z M15.4,47.1h5.3c1.5,0,2.7,1.2,2.7,2.7v5.3H26v-5.3c0-1.5,1.2-2.7,2.7-2.7H34v-2.6h-5.3
				c-1.5,0-2.7-1.2-2.7-2.7v-5.3h-2.6v5.3c0,1.5-1.2,2.7-2.7,2.7h-5.3V47.1z M82.6,49.3c-1.9,0-3.5-1.6-3.5-3.5s1.6-3.5,3.5-3.5
				s3.5,1.6,3.5,3.5S84.5,49.3,82.6,49.3z M66.5,49.3c-1.9,0-3.5-1.6-3.5-3.5s1.6-3.5,3.5-3.5s3.5,1.6,3.5,3.5S68.4,49.3,66.5,49.3z
				 M74.5,41.3c-1.9,0-3.5-1.6-3.5-3.5s1.6-3.5,3.5-3.5c2,0,3.5,1.5,3.5,3.5C78,39.7,76.4,41.3,74.5,41.3z"/>
		</g>
	</g>
</g>
</svg>
