<?xml version="1.0" encoding="utf-8"?>
<!-- Generator: Adobe Illustrator 23.0.3, SVG Export Plug-In . SVG Version: 6.00 Build 0)  -->
<svg version="1.1" id="Layer_1" xmlns="http://www.w3.org/2000/svg" xmlns:xlink="http://www.w3.org/1999/xlink" x="0px" y="0px"
	 viewBox="0 0 99.8 99.8" style="enable-background:new 0 0 99.8 99.8;" xml:space="preserve">
<style type="text/css">
	.st0{fill:#1B83FF;}
</style>
<g>
	<g>
		<g>
			<path class="st0" d="M61.7,40.9c-0.2-0.2-0.4-0.3-0.6-0.3s-0.5,0.1-0.6,0.3c-0.2,0.2-0.3,0.4-0.3,0.6s0.1,0.5,0.3,0.6
				c0.2,0.2,0.4,0.3,0.6,0.3s0.5-0.1,0.6-0.3c0.2-0.2,0.3-0.4,0.3-0.6S61.9,41,61.7,40.9z"/>
		</g>
	</g>
</g>
<g id="XMLID_165_">
	<path class="st0" d="M95.5,73H4.3V25.8c0-4.8,3.9-8.8,8.8-8.8H87c4.7,0.1,8.5,4,8.5,8.8C95.5,25.8,95.5,73,95.5,73z M6.4,71h87.2
		V25.8c0-3.7-3-6.7-6.7-6.7H13.1c-3.7,0-6.7,3-6.7,6.7C6.4,25.8,6.4,71,6.4,71z"/>
</g>
<g id="XMLID_164_">
	<path class="st0" d="M93.4,84.4H6.4c-3.4,0-6.2-2.5-6.2-5.7V71h39.3v3c0,1.8,1.5,3.2,3.2,3.2h14.2c1.9,0,3.4-1.5,3.4-3.2v-3h39.3
		v7.7C99.7,81.9,96.9,84.4,93.4,84.4z M2.2,73v5.7c0,2.1,1.9,3.7,4.2,3.7h87.1c2.2,0,4.2-1.7,4.2-3.7V73H62.3v1
		c0,2.9-2.4,5.3-5.5,5.3H42.8c-2.9,0-5.3-2.3-5.3-5.3v-1H2.2z"/>
</g>
<g id="XMLID_163_">
	<path class="st0" d="M89.3,73H10.6V23.3h78.8C89.3,23.3,89.3,73,89.3,73z M12.6,71h74.7V25.3H12.6V71z"/>
</g>
<g>
	<g>
		<path class="st0" d="M35.6,63.9c-8.4,0-15.2-6.8-15.2-15.2c0-0.5,0.4-0.9,0.9-0.9h13.5V34.4c0-0.5,0.4-0.9,0.9-0.9
			c8.4,0,15.2,6.8,15.2,15.2S44,63.9,35.6,63.9z M22.3,49.9c0.6,6.8,6.4,12.2,13.4,12.2c7.4,0,13.5-6.1,13.5-13.5
			c0-3.1-1.1-6.2-3.1-8.6l-0.2-0.3l-9.5,9.5c-0.2,0.2-0.4,0.3-0.6,0.3H22.2L22.3,49.9z M36.5,46.6l8-8l-0.3-0.2
			c-2.1-1.8-4.7-2.8-7.4-3.1h-0.3C36.5,35.3,36.5,46.6,36.5,46.6z"/>
	</g>
</g>
<g>
	<g>
		<g>
			<path class="st0" d="M78.3,52.3c-1.5,0-2.6,1.2-2.6,2.6c0,0.4,0.1,0.7,0.2,1l-5,5c-0.4-0.2-0.7-0.3-1.2-0.3
				c-0.4,0-0.8,0.1-1.1,0.3l-3.3-3.3c0.1-0.3,0.2-0.6,0.2-1c0-1.5-1.2-2.6-2.6-2.6s-2.6,1.2-2.6,2.6c0,0.4,0.1,0.8,0.2,1.1l-3.1,3.1
				c-0.3-0.2-0.7-0.3-1.1-0.3c-1.5,0-2.6,1.2-2.6,2.6c0,1.5,1.2,2.6,2.6,2.6s2.6-1.2,2.6-2.6c0-0.4-0.1-0.8-0.3-1.1l3.1-3.1
				c0.4,0.2,0.8,0.3,1.2,0.3c0.5,0,0.9-0.1,1.3-0.3l3.2,3.2c-0.2,0.3-0.3,0.7-0.3,1.2c0,1.5,1.2,2.6,2.6,2.6c1.5,0,2.6-1.2,2.6-2.6
				c0-0.4-0.1-0.8-0.3-1.1l5-5c0.4,0.2,0.8,0.3,1.2,0.3c1.5,0,2.6-1.2,2.6-2.6S79.8,52.3,78.3,52.3z M56.3,64.1
				c-0.5,0-0.9-0.4-0.9-0.9c0-0.5,0.4-0.9,0.9-0.9c0.2,0,0.5,0.1,0.6,0.2l0,0l0,0c0.2,0.2,0.2,0.4,0.2,0.6
				C57.2,63.7,56.8,64.1,56.3,64.1z M63,57.5c-0.5,0-0.9-0.4-0.9-0.9c0-0.5,0.4-0.9,0.9-0.9c0.5,0,0.9,0.4,0.9,0.9
				S63.5,57.5,63,57.5z M69.8,64.1c-0.5,0-0.9-0.4-0.9-0.9c0-0.5,0.4-0.9,0.9-0.9s0.9,0.4,0.9,0.9C70.7,63.7,70.3,64.1,69.8,64.1z
				 M78.3,55.7c-0.5,0-0.9-0.4-0.9-0.9c0-0.5,0.4-0.9,0.9-0.9s0.9,0.4,0.9,0.9C79.2,55.4,78.8,55.7,78.3,55.7z"/>
		</g>
	</g>
</g>
<g>
	<g>
		<g>
			<path class="st0" d="M61.7,36.8c-0.2-0.2-0.4-0.3-0.6-0.3s-0.5,0.1-0.6,0.3c-0.2,0.2-0.3,0.4-0.3,0.6c0,0.2,0.1,0.5,0.3,0.6
				c0.2,0.2,0.4,0.3,0.6,0.3s0.5-0.1,0.6-0.3c0.2-0.2,0.3-0.4,0.3-0.6C62,37.1,61.9,36.8,61.7,36.8z"/>
		</g>
	</g>
</g>
<g>
	<g>
		<g>
			<path class="st0" d="M74.1,36.5H63.6c-0.5,0-0.9,0.4-0.9,0.9c0,0.5,0.4,0.9,0.9,0.9h10.5c0.5,0,0.9-0.4,0.9-0.9
				C75,36.8,74.6,36.5,74.1,36.5z"/>
		</g>
	</g>
</g>
<g>
	<g>
		<g>
			<path class="st0" d="M74.1,40.7H63.6c-0.5,0-0.9,0.4-0.9,0.9c0,0.5,0.4,0.9,0.9,0.9h10.5c0.5,0,0.9-0.4,0.9-0.9
				C75,41,74.6,40.7,74.1,40.7z"/>
		</g>
	</g>
</g>
<g>
	<g>
		<g>
			<path class="st0" d="M61.7,45.1c-0.2-0.2-0.4-0.3-0.6-0.3s-0.5,0.1-0.6,0.3c-0.2,0.2-0.3,0.4-0.3,0.6c0,0.2,0.1,0.5,0.3,0.6
				c0.2,0.2,0.4,0.3,0.6,0.3s0.5-0.1,0.6-0.3c0.2-0.2,0.3-0.4,0.3-0.6C62,45.5,61.9,45.3,61.7,45.1z"/>
		</g>
	</g>
</g>
<g>
	<g>
		<g>
			<path class="st0" d="M74.1,44.9H63.6c-0.5,0-0.9,0.4-0.9,0.9c0,0.5,0.4,0.9,0.9,0.9h10.5c0.5,0,0.9-0.4,0.9-0.9
				C75,45.2,74.6,44.9,74.1,44.9z"/>
		</g>
	</g>
</g>
<g>
	<path class="st0" d="M17.1,45.4c-0.5,0-0.9-0.4-0.9-0.9c0-6.2,3.7-11.7,9.4-14.1c0.6-0.2,2.1-0.8,3.4-1c0.9-0.2,1.7-0.2,2.4-0.2
		c0.5,0,0.9,0.4,0.9,0.9v14.4c0,0.5-0.4,0.9-0.9,0.9H17.1z M30.3,31.1c-6.4,0.6-11.6,5.7-12.2,12.2v0.3h12.5V31.1H30.3z"/>
</g>
</svg>
