<?xml version="1.0" encoding="utf-8"?>
<!-- Generator: Adobe Illustrator 23.0.3, SVG Export Plug-In . SVG Version: 6.00 Build 0)  -->
<svg version="1.1" id="Layer_1" xmlns="http://www.w3.org/2000/svg" xmlns:xlink="http://www.w3.org/1999/xlink" x="0px" y="0px"
	 viewBox="0 0 3956.75 1237.69" style="enable-background:new 0 0 3956.75 1237.69;" xml:space="preserve">
<style type="text/css">
	.st0{fill:#0070C0;}
	.st1{fill:#2D4E6B;}
</style>
<g>
	<path class="st0" d="M535.93,0L0,309.42v167.94v16.63v110.35l109.97,63.49l109.97-63.49V503.32l211.5-130.75l87.15,50.32v47.96
		l-115.19,68.83v158.36l132.52,79.18l132.52-79.18V539.66l-115.19-68.83v-47.96l75.41-43.54l75.67,46.76v84.2l88.07,50.85
		l88.07-50.85V408.61l-88.07-50.85l-68.61,39.61l-77.89-48.14V242.41l-92.64-53.49V82.05l456.21,263.4V560.6l62.39,36.02v-287.2
		L535.93,0z M62.39,441.34v-95.9L518.6,82.05v106.87l-92.64,53.49v92.72l-218.4,135.09l-97.59-56.34L62.39,441.34z"/>
	<path class="st1" d="M961.89,569.84l-109.97,63.49v101.03l-211.5,130.75L535.93,804.8l-92.74,53.54l-75.67-46.76v-84.2
		l-88.07-50.85l-88.07,50.85v101.69l88.07,50.85l68.61-39.61l77.89,48.14v106.83l92.64,53.49v106.87L62.39,892.24V677.08L0,641.06
		v287.2l535.93,309.42l535.93-309.42V760.32v-16.63V633.34L961.89,569.84z M1009.48,892.24l-456.21,263.4v-106.87l92.64-53.49
		v-92.72l218.4-135.09l97.59,56.34l47.58-27.47V892.24z"/>
	<g>
		<path class="st1" d="M1989.73,389.23h233.2l-7.18,71.76h-136.33v109.43H2176l-0.3,77.14h-96.27V776.7h148.29l-7.18,71.76h-230.81
			V389.23z"/>
		<path class="st1" d="M2451.37,507.32c-3.59-7.57-6.93-14.75-10.02-21.53c-3.09-6.77-6.68-12.75-10.76-17.94
			c-4.09-5.18-9.02-9.27-14.8-12.26c-5.78-2.99-13.16-4.48-22.12-4.48c-6.98,0-13.11,1.3-18.39,3.89
			c-5.28,2.59-9.62,6.08-13.01,10.46c-3.39,4.39-5.93,9.47-7.62,15.25c-1.7,5.78-2.54,11.86-2.54,18.24
			c0,5.18,0.79,10.07,2.39,14.65c1.59,4.59,3.74,8.77,6.43,12.56c2.69,3.79,5.73,7.23,9.12,10.31c3.39,3.09,6.77,5.63,10.17,7.62
			l74.15,43.35c17.54,9.97,31.89,20.43,43.05,31.39c11.16,10.96,19.88,21.83,26.16,32.59c6.28,10.76,10.61,21.18,13.01,31.24
			c2.39,10.07,3.78,19.19,4.19,27.36c0,22.12-3.74,42.3-11.21,60.54c-7.47,18.24-17.79,33.84-30.94,46.79
			c-13.16,12.96-28.66,22.98-46.49,30.05c-17.84,7.07-37.13,10.61-57.85,10.61c-19.13,0-36.68-2.89-52.62-8.67
			c-15.95-5.78-30.15-13.8-42.6-24.07c-12.46-10.26-23.22-22.42-32.29-36.48c-9.07-14.05-16.4-29.25-21.97-45.59l75.94-35.58
			c4.38,7.17,9.17,15.1,14.35,23.77c5.18,8.67,10.96,16.74,17.34,24.22c6.38,7.47,13.65,13.71,21.83,18.69
			c8.17,4.99,17.64,7.47,28.4,7.47c5.38,0,10.51-1.24,15.4-3.74c4.88-2.49,9.17-5.88,12.86-10.17c3.69-4.28,6.68-9.17,8.97-14.65
			c2.29-5.48,3.44-11.21,3.44-17.19c0-12.16-2.94-22.82-8.82-31.99c-5.88-9.17-13.11-16.54-21.68-22.12l-80.43-47.54
			c-11.17-6.38-21.38-13.65-30.65-21.83c-9.27-8.17-17.34-17.19-24.22-27.06c-6.88-9.87-12.21-20.48-16-31.84
			c-3.79-11.36-5.68-23.52-5.68-36.48c0-20.33,3.63-38.91,10.91-55.76c7.27-16.84,17.24-31.34,29.9-43.5
			c12.66-12.15,27.7-21.57,45.15-28.25c17.44-6.68,36.33-10.02,56.66-10.02c31.09,0,57.7,7.92,79.83,23.77s38.47,39.02,49.03,69.51
			L2451.37,507.32z"/>
		<path class="st0" d="M2727.94,848.46h-82.22l-93.28-455.65l98.07-3.59l48.43,275.06l51.72-271.47l73.25-3.59l48.43,278.05
			l58.6-274.46l82.22-3.59l-98.07,459.23h-88.8l-48.73-280.44L2727.94,848.46z"/>
		<path class="st0" d="M3048.76,389.23h233.2l-7.18,71.76h-136.34v109.43h96.57l-0.3,77.14h-96.27V776.7h148.29l-7.18,71.76h-230.81
			V389.23z"/>
		<path class="st1" d="M1745.75,848.31V647.25h34.98l80.47,201.06h96.98c-25.84-59.64-38.04-88.7-48.89-114.66
			c-5.19-12.36-10.22-24.52-15.1-36.48c-4.89-11.96-9.27-22.62-13.16-31.99c-3.89-9.37-7.03-16.94-9.42-22.72
			c-2.39-5.78-3.59-8.77-3.59-8.97c9.76-5.58,18.69-11.96,26.76-19.13c8.07-7.18,15-15.44,20.78-24.82
			c5.78-9.37,10.26-20.03,13.45-31.99c3.19-11.96,4.78-25.41,4.78-40.36c0-22.32-4.04-41.56-12.11-57.7
			c-8.07-16.15-19.54-29.45-34.38-39.91c-14.85-10.46-32.64-18.14-53.37-23.02c-20.73-4.88-43.65-7.33-68.77-7.33l-108.83,3.59
			v455.49H1745.75z M1745.75,460.98h41.86c7.97,0,15.4,0.95,22.27,2.84c6.88,1.9,12.86,5.08,17.94,9.57
			c5.08,4.48,9.07,10.37,11.96,17.64c2.89,7.28,4.33,16.29,4.33,27.06c0,13.56-1.84,24.42-5.53,32.59
			c-3.69,8.18-8.67,14.5-14.95,18.99c-6.28,4.48-13.51,7.47-21.68,8.97c-8.18,1.49-16.74,2.24-25.71,2.24h-30.5V460.98z"/>
		<path class="st0" d="M3421.3,848.31V647.25h34.98l81.61,201.06h97.22c-26.25-57.3-38.99-87.66-50.27-114.66
			c-5.19-12.36-10.22-24.52-15.1-36.48c-4.89-11.96-9.27-22.62-13.15-31.99c-3.89-9.37-7.03-16.94-9.42-22.72
			c-2.39-5.78-3.59-8.77-3.59-8.97c9.76-5.58,18.69-11.96,26.76-19.13c8.07-7.18,15-15.44,20.78-24.82
			c5.78-9.37,10.26-20.03,13.45-31.99c3.18-11.96,4.78-25.41,4.78-40.36c0-22.32-4.04-41.56-12.11-57.7
			c-8.07-16.15-19.54-29.45-34.38-39.91c-14.85-10.46-32.64-18.14-53.37-23.02c-20.73-4.88-43.65-7.33-68.77-7.33l-108.83,3.59
			v455.49H3421.3z M3421.3,460.98h41.86c7.97,0,15.4,0.95,22.27,2.84c6.88,1.9,12.86,5.08,17.94,9.57
			c5.08,4.48,9.07,10.37,11.96,17.64c2.89,7.28,4.33,16.29,4.33,27.06c0,13.56-1.84,24.42-5.53,32.59
			c-3.69,8.18-8.67,14.5-14.95,18.99c-6.28,4.48-13.51,7.47-21.68,8.97c-8.18,1.49-16.74,2.24-25.71,2.24h-30.5V460.98z"/>
		<path class="st1" d="M1430.33,848.31V668.33c13.68,0,27.71-0.5,42.1-1.51c14.38-1,28.41-3.17,42.1-6.49
			c13.68-3.32,26.5-8.1,38.47-14.33c11.97-6.23,22.48-14.64,31.53-25.2c9.05-10.56,16.19-23.54,21.42-38.93
			c5.23-15.39,7.85-33.95,7.85-55.67c0-23.94-3.17-44-9.51-60.2c-6.34-16.19-14.89-29.47-25.65-39.83
			c-10.76-10.36-23.34-18.2-37.72-23.54c-14.38-5.33-29.57-9.15-45.56-11.47c-15.99-2.31-32.34-3.57-49.03-3.77
			c-16.7-0.2-32.89-0.3-48.58-0.3h-57.94v461.21H1430.33z M1430.94,459.52h12.98c12.67,0,23.94,0.86,33.8,2.57
			c9.85,1.71,18.2,4.93,25.05,9.66c6.84,4.73,12.02,11.42,15.54,20.07c3.52,8.65,5.28,19.92,5.28,33.8c0,14.08-2.07,25.65-6.19,34.7
			c-4.13,9.05-9.71,16.14-16.75,21.27c-7.04,5.13-15.24,8.65-24.59,10.56c-9.35,1.91-19.27,2.87-29.72,2.87h-15.39V459.52z"/>
		<polygon class="st0" points="3636.31,848.31 3721.03,848.31 3785.58,704.65 3850.14,848.31 3956.75,848.31 3837.91,597.91 
			3941.35,389.23 3855.85,389.23 3800.83,508.52 3747.61,389.23 3640.28,389.23 3749.71,615.25 		"/>
	</g>
</g>
</svg>
